<svg id="svg" version="1.1" viewBox="0 0 281.7182817182816 300" width="281.7182817182816" height="300" xmlns="http://www.w3.org/2000/svg"><svg xmlns="http://www.w3.org/2000/svg"><defs><clipPath id="clip-1"><rect x="0" y="0" transform="scale(0.1465,0.14648)" width="1923" height="2048" fill="none"/></clipPath><linearGradient x1="181.65628" y1="228.90674" x2="188.38061" y2="228.86279" gradientUnits="userSpaceOnUse" id="color-1"><stop offset="0" stop-color="#1a301d"/><stop offset="1" stop-color="#425142"/></linearGradient><linearGradient x1="90.00174" y1="101.28281" x2="94.98741" y2="102.98774" gradientUnits="userSpaceOnUse" id="color-2"><stop offset="0" stop-color="#468b92"/><stop offset="1" stop-color="#73979c"/></linearGradient></defs><g clip-path="url(#clip-1)" fill="none" fill-rule="nonzero" stroke="none" stroke-width="1" stroke-linecap="butt" stroke-linejoin="miter" stroke-miterlimit="10" stroke-dasharray="" stroke-dashoffset="0" font-family="none" font-weight="none" font-size="none" text-anchor="none" style="mix-blend-mode: normal"><path d="M160.45636,92.83887c0.6988,-2.02339 1.50894,-5.23799 1.58219,-7.26621c0.13917,-3.85049 -0.5816,-6.56792 1.109,-10.21904c0.48198,-1.04194 1.03722,-5.18511 3.24496,-3.13843c0.4351,0.40313 0.82333,1.98325 0.9669,2.58604c0.70027,4.47056 0.39555,9.11982 -0.02197,13.6084l-0.2344,1.68765c-0.06739,0.48911 -0.16847,1.44111 -0.30032,1.87456c-1.5734,10.17144 -5.64462,19.05981 -11.02261,27.79585l0.11427,0.07646c0.28421,-0.05918 3.92032,-3.10063 4.61473,-3.59224c3.94962,-2.79917 8.14097,-4.8958 12.47442,-7.0355c4.29976,-2.73735 7.30739,-5.24531 9.89896,-9.65728c-2.14915,-3.36855 -3.21273,-4.38223 -5.40583,-7.30605c1.03282,0.55298 5.12894,4.74595 5.9259,5.7375c0.33255,0.46553 1.75506,2.39399 1.96163,2.79756c1.00352,1.4855 1.91475,2.94185 2.71024,4.5542c0.49663,1.18535 1.34633,3.47256 1.85468,4.50469c0.90683,2.96074 1.6613,5.63921 1.97335,8.752c0.83651,8.34185 -1.48257,17.10894 -5.36774,24.45132c-2.65457,5.01606 -7.80988,11.44233 -12.27665,14.87593c-1.53678,1.58057 -3.92032,3.72363 -5.94641,4.58789c-4.07415,3.23145 -10.15827,5.89307 -15.07332,7.45752c-2.1301,0.60791 -3.73573,1.03418 -5.92736,1.42676c-0.81483,0.14648 -3.13054,0.4541 -3.69164,0.6167c-2.56418,-0.12891 -5.64814,-0.05713 -8.25026,-0.06152c-4.10096,-0.35156 -6.63408,-1.021 -10.54913,-1.79883c-5.87316,-1.76953 -12.12502,-4.45605 -16.97942,-8.23828c-1.68211,-1.01514 -3.09553,-1.99951 -4.4549,-3.42627c-1.30033,-0.83789 -2.72093,-2.28662 -3.85279,-3.33838c-11.08766,-10.30254 -18.52074,-29.60127 -12.92447,-44.37114c0.4688,-0.13359 0.67185,-0.24858 1.12468,-0.08232c0.50103,0.53423 0.48228,1.53442 0.66613,2.36353c0.11061,-0.88726 0.8538,-3.50654 1.19016,-4.36201c0.40287,-1.52036 2.08659,-5.15288 2.77294,-6.5978c0.22707,-0.51006 1.26766,-2.28999 1.57062,-2.7873c1.12541,3.32461 6.41081,7.67402 9.3427,9.46099c4.34649,2.88867 10.06026,4.57295 14.19784,8.17661c0.56534,0.49233 3.32422,2.93848 3.75698,2.93833c-1.82773,-3.39214 -4.06375,-6.65859 -5.86217,-10.31572c-4.66483,-9.36943 -6.92195,-19.82812 -6.80211,-30.27437c0.02388,-2.07378 -0.07808,-7.89858 2.69588,-7.56724c1.15515,0.29399 3.02111,6.72539 2.95724,7.48667c-1.02227,12.18413 5.67246,26.02896 16.33468,32.15889c2.9001,1.66729 5.72168,3.09697 7.88826,6.21621c3.01203,-3.73887 5.04851,-4.41064 8.88343,-6.946c6.57636,-4.34883 10.38241,-10.65117 13.13074,-17.8103z" fill="#ffffff"/><path d="M160.45636,92.83887c0.6988,-2.02339 1.50894,-5.23799 1.58219,-7.26621c0.13917,-3.85049 -0.5816,-6.56792 1.109,-10.21904c0.48198,-1.04194 1.03722,-5.18511 3.24496,-3.13843c0.4351,0.40313 0.82333,1.98325 0.9669,2.58604c0.70027,4.47056 0.39555,9.11982 -0.02197,13.6084l-0.2344,1.68765c-0.06739,0.48911 -0.16847,1.44111 -0.30032,1.87456c-1.5734,10.17144 -5.64462,19.05981 -11.02261,27.79585c-0.53912,0.55444 -3.20834,5.7293 -3.66541,6.69932c-1.81952,3.09111 -3.27719,7.39292 -3.45446,10.99629c-0.00879,0.64395 -0.06006,2.75405 0.07325,3.33486c0.63434,2.93174 0.91123,3.10474 1.73895,5.62075l-0.12452,0.16362c-2.4773,-0.62842 -3.62146,-4.06685 -4.08001,-6.26162c-0.11544,-1.42866 -0.09874,-2.87314 -0.07808,-4.30562c-0.14459,0.88242 -0.15031,1.22329 -0.155,2.1063c-1.69661,0.56792 -3.11443,1.03872 -4.65897,1.9894c-0.29974,0.18442 -2.33974,1.66157 -2.30385,1.65762c-0.11295,-0.56528 -0.13214,-0.73198 -0.15177,-1.30898l0.16862,-0.85649l-0.6632,0.07808c-0.34017,-0.24126 -0.24612,-0.36064 -0.34808,-0.92886l-0.12614,0.86396c-0.11237,0.64585 -0.05713,1.57207 -0.04527,2.24927c-1.44668,-1.40977 -1.79257,-1.71431 -3.58337,-2.59761c-0.55846,0.57275 -0.79198,0.85195 -1.27161,1.48301c-1.0063,1.10098 -5.36818,5.76855 -6.69737,5.4772c-0.03926,-0.11807 -0.07852,-0.23613 -0.11764,-0.3542c0.67507,-1.95732 1.49927,-3.54844 2.05377,-5.57329c0.11354,-0.85269 0.07061,-1.83882 0.06182,-2.71333c-0.58585,-4.31543 -1.11325,-7.36348 -3.44698,-11.15449c-0.42983,-1.11445 -2.89995,-5.56699 -3.67435,-6.54214c-1.82773,-3.39214 -4.06375,-6.65859 -5.86217,-10.31572c-4.66483,-9.36943 -6.92195,-19.82812 -6.80211,-30.27437c0.02388,-2.07378 -0.07808,-7.89858 2.69588,-7.56724c1.15515,0.29399 3.02111,6.72539 2.95724,7.48667c-1.02227,12.18413 5.67246,26.02896 16.33468,32.15889c2.9001,1.66729 5.72168,3.09697 7.88826,6.21621c3.01203,-3.73887 5.04851,-4.41064 8.88343,-6.946c6.57636,-4.34883 10.38241,-10.65117 13.13074,-17.8103z" fill="#273a29"/><path d="M160.45636,92.83887c0.6988,-2.02339 1.50894,-5.23799 1.58219,-7.26621c0.13917,-3.85049 -0.5816,-6.56792 1.109,-10.21904c0.48198,-1.04194 1.03722,-5.18511 3.24496,-3.13843c0.4351,0.40313 0.82333,1.98325 0.9669,2.58604c0.70027,4.47056 0.39555,9.11982 -0.02197,13.6084l-0.2344,1.68765c-0.06739,0.48911 -0.16847,1.44111 -0.30032,1.87456c-1.5734,10.17144 -5.64462,19.05981 -11.02261,27.79585c-0.53912,0.55444 -3.20834,5.7293 -3.66541,6.69932c-1.81952,3.09111 -3.27719,7.39292 -3.45446,10.99629c-0.00879,0.64395 -0.06006,2.75405 0.07325,3.33486c0.63434,2.93174 0.91123,3.10474 1.73895,5.62075l-0.12452,0.16362c-2.4773,-0.62842 -3.62146,-4.06685 -4.08001,-6.26162c-0.11544,-1.42866 -0.09874,-2.87314 -0.07808,-4.30562c-0.14459,0.88242 -0.15031,1.22329 -0.155,2.1063c-1.69661,0.56792 -3.11443,1.03872 -4.65897,1.9894c-0.29974,0.18442 -2.33974,1.66157 -2.30385,1.65762c-0.11295,-0.56528 -0.13214,-0.73198 -0.15177,-1.30898l0.16862,-0.85649l-0.6632,0.07808c-0.34017,-0.24126 -0.24612,-0.36064 -0.34808,-0.92886l-0.12614,0.86396c-0.11237,0.64585 -0.05713,1.57207 -0.04527,2.24927c-1.44668,-1.40977 -1.79257,-1.71431 -3.58337,-2.59761c5.58573,-6.5332 9.42958,-10.76514 5.42253,-19.5394c2.7246,-3.90308 5.13261,-4.72676 8.86805,-7.25171c6.67158,-4.5082 11.05191,-11.78159 13.36953,-19.38545c-0.72517,-0.3709 -0.7032,-0.31743 -1.52652,-0.25254z" fill="#f3eace"/><path d="M165.0916,92.19741c0.42924,-0.13799 1.23938,-0.18604 1.71111,-0.22559c-1.5734,10.17144 -5.64462,19.05981 -11.02261,27.79585c-0.53912,0.55444 -3.20834,5.7293 -3.66541,6.69932c-1.81952,3.09111 -3.27719,7.39292 -3.45446,10.99629c-0.00879,0.64395 -0.06006,2.75405 0.07325,3.33486c0.63434,2.93174 0.91123,3.10474 1.73895,5.62075l-0.12452,0.16362c-2.4773,-0.62842 -3.62146,-4.06685 -4.08001,-6.26162c-0.11544,-1.42866 -0.09874,-2.87314 -0.07808,-4.30562c-0.14459,0.88242 -0.15031,1.22329 -0.155,2.1063c-1.69661,0.56792 -3.11443,1.03872 -4.65897,1.9894c-0.29974,0.18442 -2.33974,1.66157 -2.30385,1.65762c-0.11295,-0.56528 -0.13214,-0.73198 -0.15177,-1.30898l0.16862,-0.85649l-0.6632,0.07808c-0.34017,-0.24126 -0.24612,-0.36064 -0.34808,-0.92886c2.26166,-5.67349 6.02625,-7.61558 9.74616,-11.93657c1.6906,-1.96436 4.06682,-6.02197 5.48054,-8.29131c4.88575,-7.83604 10.14655,-17.08198 11.78734,-26.32705z" fill="#273a29"/><path d="M139.08884,139.60313c1.30619,-3.49233 5.62147,-7.1042 8.43455,-9.69185c-0.70466,1.96919 -1.15222,4.02056 -1.33358,6.104c-0.14459,0.88242 -0.15031,1.22329 -0.155,2.1063c-1.69661,0.56792 -3.11443,1.03872 -4.65897,1.9894c-0.29974,0.18442 -2.33974,1.66157 -2.30385,1.65762c-0.11295,-0.56528 -0.13214,-0.73198 -0.15177,-1.30898z" fill="#f8f5e4"/><path d="M160.45636,92.83887c0.6988,-2.02339 1.50894,-5.23799 1.58219,-7.26621c0.13917,-3.85049 -0.5816,-6.56792 1.109,-10.21904c0.48198,-1.04194 1.03722,-5.18511 3.24496,-3.13843c0.4351,0.40313 0.82333,1.98325 0.9669,2.58604c0.70027,4.47056 0.39555,9.11982 -0.02197,13.6084c-0.85116,-0.2064 -1.09875,-0.18135 -1.43423,-1.00884c0.37943,-3.44707 1.16467,-11.02295 -0.37357,-14.03906l-0.20656,-0.15703c-0.52007,0.41836 -0.65485,1.8438 -0.83065,2.52627c-0.24172,0.94087 -1.29359,2.86846 -1.24817,3.73652c0.26809,5.04419 0.13331,8.66367 -1.26136,13.62393c-0.72517,-0.3709 -0.7032,-0.31743 -1.52652,-0.25254z" fill="#273a29"/><path d="M165.7611,88.48843l0.1421,-1.08765c0.33548,0.82749 0.58307,0.80244 1.43423,1.00884l-0.2344,1.68765c-0.06739,0.48911 -0.16847,1.44111 -0.30032,1.87456c-0.47173,0.03955 -1.28187,0.0876 -1.71111,0.22559c0.25784,-1.16646 0.46147,-2.52012 0.6695,-3.70898z" fill="#556052"/><path d="M165.7611,88.48843l0.1421,-1.08765c0.33548,0.82749 0.58307,0.80244 1.43423,1.00884l-0.2344,1.68765c-0.83212,-0.32329 -1.12365,-0.78545 -1.34193,-1.60884z" fill="#3d4d3c"/><path d="M110.85241,72.773c0.47495,0.91201 2.13215,5.8437 2.08425,6.73359c-0.46059,8.55908 1.3749,15.83013 5.8777,23.32896c2.22576,3.71704 5.24028,6.90044 8.83098,9.3252c3.5113,2.4022 7.28585,3.74678 9.67218,7.6248c-1.60036,3.68745 -2.55246,7.55273 -0.35145,11.25293c0.21462,0.36079 0.39086,0.37061 0.75389,0.41675l0.15617,0.08789c-1.80414,3.10415 -4.99607,5.72461 -7.02904,8.51646c1.50645,-13.55801 -9.13233,-22.60708 -14.5783,-34.05044c-3.84488,-8.07876 -6.13525,-16.85742 -6.26827,-25.85273c-0.03838,-2.5916 0.02124,-4.92217 0.85189,-7.3834z" fill="#f3eace"/><path d="M138.45113,121.5353c1.51319,3.25078 1.48492,6.97661 -0.57501,10.00781l-0.15617,-0.08789c-0.16174,-3.95874 -0.91665,-5.84121 0.73118,-9.91992z" fill="#f3eace"/><path d="M92.36228,102.1021c0.22707,-0.51006 1.26766,-2.28999 1.57062,-2.7873c1.12541,3.32461 6.41081,7.67402 9.3427,9.46099c4.34649,2.88867 10.06026,4.57295 14.19784,8.17661c0.56534,0.49233 3.32422,2.93848 3.75698,2.93833c0.7744,0.97515 3.24452,5.42769 3.67435,6.54214c2.33373,3.79102 2.86113,6.83906 3.44698,11.15449c0.00879,0.87451 0.05171,1.86064 -0.06182,2.71333c-0.31351,-0.2187 -4.23456,-0.7957 -4.86832,-0.91201c-12.45582,-2.28691 -23.33193,-9.14238 -31.09068,-19.1165l-2.11941,-3.16113c-0.6865,-1.14199 -1.33124,-2.51147 -1.93247,-3.71572l0.12013,-0.3334c0.11061,-0.88726 0.8538,-3.50654 1.19016,-4.36201c0.40287,-1.52036 2.08659,-5.15288 2.77294,-6.5978z" fill="#f8f5e4"/><path d="M92.36228,102.1021c0.22707,-0.51006 1.26766,-2.28999 1.57062,-2.7873c1.12541,3.32461 6.41081,7.67402 9.3427,9.46099c4.34649,2.88867 10.06026,4.57295 14.19784,8.17661c0.56534,0.49233 3.32422,2.93848 3.75698,2.93833c0.7744,0.97515 3.24452,5.42769 3.67435,6.54214c-0.60885,-0.28389 -3.64549,-2.76841 -4.41857,-3.3605c-2.99591,-2.26274 -5.95373,-4.78887 -9.21173,-6.67983c-5.95256,-3.45527 -13.42491,-8.31694 -18.16109,-0.38789c-0.51333,-0.92051 -0.99986,-1.68442 -1.48887,-2.64258c-0.77029,-1.28027 -1.4773,-3.23687 -2.03517,-4.66216c0.40287,-1.52036 2.08659,-5.15288 2.77294,-6.5978z" fill="#93c1bf"/><path d="M92.36228,102.1021c0.22707,-0.51006 1.26766,-2.28999 1.57062,-2.7873c1.12541,3.32461 6.41081,7.67402 9.3427,9.46099c-0.25637,0.4626 -0.32801,0.81826 -0.84164,0.96841c-0.78846,0.23042 -2.27367,-0.29663 -3.09246,-0.52148c-3.51364,0.26704 -5.59188,1.29697 -7.717,4.13936c-0.77029,-1.28027 -1.4773,-3.23687 -2.03517,-4.66216c0.40287,-1.52036 2.08659,-5.15288 2.77294,-6.5978z" fill="#f8f5e4"/><path d="M92.36228,102.1021c0.22707,-0.51006 1.26766,-2.28999 1.57062,-2.7873c1.12541,3.32461 6.41081,7.67402 9.3427,9.46099c-0.25637,0.4626 -0.32801,0.81826 -0.84164,0.96841c-0.78846,0.23042 -2.27367,-0.29663 -3.09246,-0.52148c-3.126,-2.19639 -4.91505,-3.88755 -6.97923,-7.12061z" fill="#abb195"/><path d="M89.58934,108.6999c0.55787,1.42529 1.26488,3.38188 2.03517,4.66216c0.48901,0.95815 0.97554,1.72207 1.48887,2.64258c0.90683,1.61895 2.27162,3.37544 3.48786,4.78608c7.80973,9.05874 19.9201,15.21284 31.75051,16.79663c0.00879,0.87451 0.05171,1.86064 -0.06182,2.71333c-0.31351,-0.2187 -4.23456,-0.7957 -4.86832,-0.91201c-12.45582,-2.28691 -23.33193,-9.14238 -31.09068,-19.1165l-2.11941,-3.16113c-0.6865,-1.14199 -1.33124,-2.51147 -1.93247,-3.71572l0.12013,-0.3334c0.11061,-0.88726 0.8538,-3.50654 1.19016,-4.36201z" fill="#8d8d5a"/><path d="M182.88248,99.55913c0.41313,0.66636 1.22327,1.92979 1.52652,2.63833c1.21301,2.35269 1.8371,3.85151 2.71903,6.35244c-0.63141,1.72778 -1.17346,3.15249 -1.95137,4.8356c-0.33255,0.8105 -1.07091,2.17573 -1.57047,2.88823c-7.64873,11.99473 -20.91278,19.51729 -34.94596,21.18955c0.17726,-3.60337 1.63493,-7.90518 3.45446,-10.99629c0.45708,-0.97002 3.1263,-6.14487 3.66541,-6.69932l0.11427,0.07646c0.28421,-0.05918 3.92032,-3.10063 4.61473,-3.59224c3.94962,-2.79917 8.14097,-4.8958 12.47442,-7.0355c4.29976,-2.73735 7.30739,-5.24531 9.89896,-9.65728z" fill="#f8f5e4"/><path d="M182.88248,99.55913c0.41313,0.66636 1.22327,1.92979 1.52652,2.63833c1.21301,2.35269 1.8371,3.85151 2.71903,6.35244c-0.63141,1.72778 -1.17346,3.15249 -1.95137,4.8356c-0.33255,0.8105 -1.07091,2.17573 -1.57047,2.88823c-2.96075,-6.07266 -8.33874,-5.25015 -13.39883,-2.44658c-3.85733,2.13618 -7.51395,4.47891 -11.03433,7.14712c-2.42017,1.84922 -4.50339,3.69683 -7.05834,5.49272c0.45708,-0.97002 3.1263,-6.14487 3.66541,-6.69932l0.11427,0.07646c0.28421,-0.05918 3.92032,-3.10063 4.61473,-3.59224c3.94962,-2.79917 8.14097,-4.8958 12.47442,-7.0355c4.29976,-2.73735 7.30739,-5.24531 9.89896,-9.65728z" fill="#93c1bf"/><path d="M182.88248,99.55913c0.41313,0.66636 1.22327,1.92979 1.52652,2.63833c1.21301,2.35269 1.8371,3.85151 2.71903,6.35244c-0.63141,1.72778 -1.17346,3.15249 -1.95137,4.8356c-2.21068,-2.73589 -4.0595,-3.78237 -7.62529,-4.18184c-1.18371,0.00996 -3.73134,1.58379 -4.56785,0.01274c4.29976,-2.73735 7.30739,-5.24531 9.89896,-9.65728z" fill="#f8f5e4"/><path d="M182.88248,99.55913c0.41313,0.66636 1.22327,1.92979 1.52652,2.63833c-1.9543,3.06592 -3.78554,4.97886 -6.85764,7.0062c-1.18371,0.00996 -3.73134,1.58379 -4.56785,0.01274c4.29976,-2.73735 7.30739,-5.24531 9.89896,-9.65728z" fill="#abb195"/><path d="M168.69695,117.57349c0.4395,-0.23071 0.98448,-0.06284 1.21887,0.37588c0.23293,0.43872 0.07032,0.98423 -0.36771,1.22168c-0.44096,0.23994 -0.99473,0.07412 -1.23059,-0.36943c-0.23733,-0.44355 -0.06592,-0.99492 0.37943,-1.22813z" fill="#f3eace"/><path d="M86.60837,110.78071c0.4688,-0.13359 0.67185,-0.24858 1.12468,-0.08232c0.50103,0.53423 0.48228,1.53442 0.66613,2.36353l-0.12013,0.3334c0.60123,1.20425 1.24598,2.57373 1.93247,3.71572l2.11941,3.16113c-0.45766,1.19443 0.15412,4.79854 0.4751,6.08291c2.06989,8.28428 8.20206,15.71821 14.60555,21.121l-1.35629,0.79687c-2.01217,1.53809 -3.05202,2.81836 -3.72504,5.33203c-0.02256,1.94971 0.38002,3.06738 1.05538,4.88525c-1.30033,-0.83789 -2.72093,-2.28662 -3.85279,-3.33838c-11.08766,-10.30254 -18.52074,-29.60127 -12.92447,-44.37114z" fill="#ffffff"/><path d="M86.60837,110.78071c0.4688,-0.13359 0.67185,-0.24858 1.12468,-0.08232c0.50103,0.53423 0.48228,1.53442 0.66613,2.36353l-0.12013,0.3334c-1.97994,11.23184 0.57501,22.79062 7.10478,32.14189c0.9146,1.32803 5.92766,7.74697 6.94641,8.06777c-0.02256,1.94971 0.38002,3.06738 1.05538,4.88525c-1.30033,-0.83789 -2.72093,-2.28662 -3.85279,-3.33838c-11.08766,-10.30254 -18.52074,-29.60127 -12.92447,-44.37114z" fill="#3b8792"/><path d="M90.21153,117.11104l2.11941,3.16113c-0.45766,1.19443 0.15412,4.79854 0.4751,6.08291c2.06989,8.28428 8.20206,15.71821 14.60555,21.121l-1.35629,0.79687c-0.86215,-0.97998 -3.42516,-2.51177 -4.54163,-3.53511c-7.57387,-6.94248 -14.32617,-16.97051 -11.30213,-27.62681z" fill="#93c1bf"/><path d="M137.44424,153.1582c5.64447,-2.2002 10.5963,-5.05078 16.405,-6.85283c6.62617,-2.05562 18.92186,-0.84243 20.97578,7.20732c0.2637,1.79297 -0.20217,2.68359 -0.56695,4.41357c-1.53678,1.58057 -3.92032,3.72363 -5.94641,4.58789c-3.0384,0.4834 -4.77734,1.1499 -8.03842,1.26416c-5.17289,0.271 -10.35165,-0.40723 -15.2793,-2.00098c-12.14348,-3.93311 -17.56791,-9.86865 -32.03209,-8.9707c11.9583,-4.44141 22.88364,3.29297 33.54777,6.59473c3.94816,1.2583 8.08091,1.83838 12.22098,1.7124c3.71083,-0.11719 15.6139,-1.5791 13.48673,-8.1709c-0.55084,-1.70361 -2.96515,-3.13916 -4.60594,-3.82031c-9.25876,-3.84038 -19.51225,1.01953 -28.104,4.59961c4.05056,0.65771 6.43396,-0.46436 10.31312,-1.2876c4.30562,-0.91406 10.44394,-1.39014 14.55911,0.43506c-4.86817,-0.76025 -9.12838,0.17578 -13.82368,1.27002c-1.48257,0.3457 -5.28584,1.58057 -6.60331,1.25391c-1.64841,-0.40869 -4.75376,-1.60547 -6.50838,-2.23535z" fill="#273a29"/><path d="M182.88248,99.55913c-2.14915,-3.36855 -3.21273,-4.38223 -5.40583,-7.30605c1.03282,0.55298 5.12894,4.74595 5.9259,5.7375c0.33255,0.46553 1.75506,2.39399 1.96163,2.79756c1.00352,1.4855 1.91475,2.94185 2.71024,4.5542c0.49663,1.18535 1.34633,3.47256 1.85468,4.50469c0.90683,2.96074 1.6613,5.63921 1.97335,8.752c0.83651,8.34185 -1.48257,17.10894 -5.36774,24.45132c-2.65457,5.01606 -7.80988,11.44233 -12.27665,14.87593c0.36478,-1.72998 0.83065,-2.62061 0.56695,-4.41357c0.52154,-0.24463 1.43716,-1.29639 1.8664,-1.77832c3.11604,-3.46582 5.7545,-7.33228 7.84504,-11.49683c3.58484,-7.304 6.42693,-19.33228 3.78115,-27.11294c-0.45122,-1.6645 -0.42045,-2.82935 -1.18957,-4.57471c-0.88193,-2.50093 -1.50601,-3.99976 -2.71903,-6.35244c-0.30325,-0.70854 -1.1134,-1.97197 -1.52652,-2.63833z" fill="#3b8792"/><path d="M107.84053,161.9165c0.6446,0.08643 1.26927,0.25342 1.89087,0.44092c2.20657,0.66797 4.46589,1.01514 6.7545,1.27148c1.30311,0.854 3.6304,1.6875 5.11561,2.21924c8.44613,3.0249 17.58827,4.13965 26.41706,2.23975c2.8626,-0.61523 10.10406,-2.67041 12.25467,-4.30957c3.26108,-0.11426 5.00002,-0.78076 8.03842,-1.26416c-4.07415,3.23145 -10.15827,5.89307 -15.07332,7.45752c-2.1301,0.60791 -3.73573,1.03418 -5.92736,1.42676c-0.81483,0.14648 -3.13054,0.4541 -3.69164,0.6167c-2.56418,-0.12891 -5.64814,-0.05713 -8.25026,-0.06152c-4.10096,-0.35156 -6.63408,-1.021 -10.54913,-1.79883c-5.87316,-1.76953 -12.12502,-4.45605 -16.97942,-8.23828z" fill="#3b8792"/><path d="M107.41158,147.47607c6.87082,-3.29663 13.76332,-2.57461 20.50962,0.72217c1.76092,0.85986 3.14534,1.7124 4.49987,3.1377c-7.63306,-2.78467 -15.72304,-5.72183 -23.70609,-2.04053c-1.3015,0.58154 -3.49738,2.28516 -3.92193,3.6709c-1.18489,3.86719 3.64329,6.25781 6.60668,7.05029c7.64668,2.04639 15.66796,1.15137 23.2953,-0.48047c0.7448,-0.15967 2.02037,-0.42187 2.65852,0.02344c-0.31278,0.36182 -1.49224,0.74414 -2.00558,0.96533c-4.19838,1.81494 -8.5434,2.7876 -13.10539,3.11719c-1.91665,0.1377 -3.84077,0.1333 -5.75669,-0.01318c-2.28861,-0.25635 -4.54793,-0.60352 -6.7545,-1.27148c-0.6216,-0.1875 -1.24627,-0.35449 -1.89087,-0.44092c-1.68211,-1.01514 -3.09553,-1.99951 -4.4549,-3.42627c-0.67536,-1.81787 -1.07794,-2.93555 -1.05538,-4.88525c0.67302,-2.51367 1.71287,-3.79395 3.72504,-5.33203z" fill="#273a29"/><path d="M187.12804,108.5499c0.76912,1.74536 0.73836,2.91021 1.18957,4.57471c-0.44389,1.31675 -1.17639,2.70176 -1.80487,3.95552c-0.68415,1.07314 -1.37856,2.13984 -2.08176,3.19966c-5.81163,7.95923 -13.94381,13.92642 -23.28021,17.08359c-2.00411,0.65479 -4.04485,1.19253 -6.11195,1.61045c-1.67742,0.35229 -4.32613,0.8165 -6.10316,1.11226c-0.15236,0.0252 -0.19191,0.55591 -0.20217,0.71206c-0.13331,-0.58081 -0.08204,-2.69092 -0.07325,-3.33486c14.03317,-1.67227 27.29723,-9.19482 34.94596,-21.18955c0.49956,-0.7125 1.23792,-2.07773 1.57047,-2.88823c0.77791,-1.68311 1.31996,-3.10781 1.95137,-4.8356z" fill="#8d8d5a"/><path d="M186.51274,117.08013c3.64783,10.18564 -4.83741,22.91104 -12.61213,29.03906c-0.74275,0.58491 -1.69793,1.43013 -2.52272,1.84614l-0.29739,-0.01465l-0.07764,-0.21826l0.25198,-0.49512c-0.36332,-0.18018 -0.47466,-0.12598 -0.9083,-0.13477c1.06359,-1.27412 2.88897,-2.82627 4.19721,-4.27427c5.4029,-5.98389 10.54209,-13.67124 10.044,-22.07886c-0.01172,-0.20537 -0.0586,-0.30103 -0.15675,-0.46963c0.7032,-1.05981 1.3976,-2.12651 2.08176,-3.19966z" fill="#93c1bf"/><path d="M146.03482,138.12158c0.00469,-0.88301 0.0104,-1.22388 0.155,-2.1063c-0.02066,1.43247 -0.03736,2.87695 0.07808,4.30562c-2.03268,0.21782 -5.00559,2.12563 -6.53065,3.47124c1.62556,2.81235 2.3204,3.87437 4.58836,6.29429c-2.4609,-1.44141 -3.95211,-3.06885 -5.80723,-5.23828c-1.64665,1.81787 -3.35791,3.55957 -5.05525,5.3291c1.17859,-2.22803 2.58879,-4.34282 3.72606,-6.50903c-1.36801,-1.38442 -2.47437,-1.93477 -4.13802,-2.91724c0.47964,-0.63105 0.71316,-0.91025 1.27161,-1.48301c1.79081,0.8833 2.13669,1.18784 3.58337,2.59761c-0.01187,-0.6772 -0.0671,-1.60342 0.04527,-2.24927l0.12614,-0.86396c0.10196,0.56821 0.00791,0.6876 0.34808,0.92886l0.6632,-0.07808l-0.16862,0.85649c0.01963,0.577 0.03882,0.7437 0.15177,1.30898c-0.03589,0.00396 2.00411,-1.47319 2.30385,-1.65762c1.54454,-0.95068 2.96236,-1.42148 4.65897,-1.9894z" fill="#8d8d5a"/><path d="M138.07756,138.75234c0.10196,0.56821 0.00791,0.6876 0.34808,0.92886l0.6632,-0.07808l-0.16862,0.85649c-0.17653,0.59238 0.14181,1.14126 -0.61149,1.89185c-0.29036,-0.7396 -0.30721,-1.92114 -0.35731,-2.73516z" fill="#556052"/><path d="M131.11254,72.35493c1.94419,-1.83486 3.84297,-2.60288 6.29596,-1.08765c0.20686,0.32388 0.21711,0.31025 0.52242,0.55356c0.56432,-0.16289 0.53077,-0.30615 1.00176,-0.83525c2.35556,-1.05527 4.26006,-0.29956 6.08002,1.34355c2.59861,-0.86221 4.08118,1.02729 4.98215,3.16494c2.29125,0.98423 2.68973,1.73438 3.20541,4.06069c2.03195,1.40303 2.71463,2.87314 1.90449,5.33232c1.9587,2.66777 1.78876,3.95684 0.54058,6.94966c-0.20217,0.48486 -0.18752,1.41826 -0.41752,1.9166c-1.53971,3.33911 -5.30621,4.37593 -8.5541,3.33164c-0.12892,0.97295 -0.28934,1.61616 -0.5296,2.57168c-0.45693,-3.56221 -0.67331,-4.93901 -4.4193,-5.88853c-1.48082,-0.37544 -3.10535,-1.77305 -3.2999,-3.33149c-0.18796,-1.91909 2.38516,-2.09121 2.15501,-4.15371c-0.27864,-2.49492 -3.18973,-3.76143 -4.72988,-1.47144c-1.77118,2.63335 2.88443,4.27134 0.9209,7.09409c-1.63567,2.35122 -5.17963,1.46865 -5.95373,4.66699c-0.46279,1.63857 -0.34867,2.74014 -0.55465,4.35527c-0.37182,-0.67148 -0.56754,-1.01162 -0.80663,-1.75884c-0.15895,-0.49629 -0.2533,-2.22158 -0.48066,-2.42637c-0.42353,0.56704 -1.20877,0.79058 -1.88926,0.75015c-4.46442,-0.26514 -7.06479,-2.44849 -6.42634,-6.9999c-1.52022,-2.10366 -0.98389,-3.94819 0.40141,-5.94741c-0.50762,-2.64009 0.39745,-2.8437 1.62189,-4.90225c0.41547,-0.87363 0.51802,-1.57368 1.0526,-2.39546c0.45591,-0.70063 1.92236,-1.02583 2.1115,-1.48828c1.10973,-2.7123 2.00719,-3.59722 5.26548,-3.40459z" fill="#273a29"/><path d="M134.38196,72.09302c2.35937,-0.14136 3.43995,1.49019 2.78202,3.68804c-0.34632,0.19146 -0.39159,0.1957 -0.66892,0.46904c0.14416,0.50713 0.34984,0.53262 0.83695,0.95508c0.06182,1.53354 -0.00469,3.03721 -0.0523,4.57002c-4.88883,2.46841 -3.75229,4.99819 -1.54469,8.57974c0.78992,1.28145 -4.05818,2.46782 -4.85265,3.36343c-0.66936,0.75483 -0.83212,0.79116 -1.45606,1.86855c-3.58367,0.46816 -6.95857,0.35215 -7.54355,-4.06333c1.08439,0.08379 3.74584,0.80332 3.89952,-1.00942c-0.74348,-0.31392 -3.07385,0.43535 -3.70761,-0.4771c-0.5819,-0.83789 -0.93452,-3.06855 -0.023,-3.85181c1.01158,-0.13403 1.55729,1.65527 2.71844,1.14038c0.1903,-1.28892 -1.9647,-1.75869 -2.11897,-3.29063c-0.12951,-1.28496 1.84164,-4.86006 2.47892,-6.12905c0.43012,-0.85679 1.68328,0.31641 2.29184,0.20933c0.6799,-1.06978 -1.15573,-5.48174 4.20116,-4.00708c1.05084,-1.10273 1.33051,-1.49341 2.75888,-2.01519z" fill="#f3eace"/><path d="M129.79229,75.48267c0.35087,0.075 0.34486,0.08379 0.68064,0.21694c0.33915,0.51226 0.2177,1.26694 0.21638,1.94253c1.80033,0.29663 5.09129,0.26836 4.55496,3.12217l-0.23586,0.14077c-0.76341,-0.29106 -1.61193,-1.67783 -2.74818,-1.96099c-0.84823,-0.21138 -2.33901,-0.22676 -2.68445,0.77344c0.32889,0.35068 0.90361,0.44692 1.39013,0.58594c1.4291,0.7856 2.43628,2.04609 1.90156,3.75117c-0.37489,0.39521 -0.15573,0.30278 -0.65676,0.33545c-0.36991,-0.53584 -0.19733,-1.70918 -0.62233,-2.16885c-0.84047,-0.90894 -2.89439,-1.07373 -3.33579,-2.41436c-0.41108,-1.24849 1.26429,-1.93682 1.26751,-2.13457c0.01275,-0.77065 -0.44008,-1.01865 0.2722,-2.18965z" fill="#273a29"/><path d="M129.12059,82.50586c0.41679,0.0832 0.50659,0.05933 0.82464,0.3397c0.31761,0.99624 0.55963,2.23447 1.50045,2.84795c0.56256,0.36694 1.46118,0.80684 1.34911,1.50366l-0.27615,0.16333c-0.54937,-0.01201 -0.8267,-0.21768 -1.33534,-0.47358c-0.68752,-0.42217 -1.30384,-0.94043 -1.93408,-1.44448c-0.72312,0.37705 -0.92998,0.62314 -1.68958,0.30044c-0.34061,-0.43257 -0.2804,-0.1998 -0.23704,-0.70708c0.71184,-0.58682 1.06022,0.06826 1.79755,-0.45513c-0.0504,-0.85093 -0.0586,-1.21699 0.00044,-2.0748z" fill="#273a29"/><path d="M125.23205,79.7502c0.29798,0.03398 0.29783,0.04849 0.58746,0.1396c0.2763,0.4541 0.15485,1.2583 0.15368,1.8709c0.79974,1.40024 2.09963,1.73364 1.13713,3.15835c-1.60607,-1.27515 -3.45665,-3.04834 -1.87827,-5.16885z" fill="#273a29"/><path d="M128.19237,88.33198c1.5526,-0.1626 5.11034,0.73359 5.67582,2.40645c-1.52623,0.26631 -4.91168,-0.90732 -5.67582,-2.40645z" fill="#273a29"/><path d="M125.88456,87.94219c0.9039,0.62314 1.33476,1.9604 2.53107,2.25908c0.70056,0.1749 1.69969,-0.07822 2.12483,0.53745l-0.11207,0.47388c-2.58762,0.58945 -4.92179,-0.19893 -4.54382,-3.27041z" fill="#273a29"/><path d="M126.41035,92.75098c0.85424,0.05698 3.26752,0.12466 3.78701,0.83716l-0.06036,0.24858l-0.44375,0.1894c-1.04601,0.00674 -3.26928,0.15864 -3.87681,-0.81753c0.19074,-0.38804 0.07515,-0.20859 0.59391,-0.45762z" fill="#273a29"/><path d="M132.89324,73.65674c1.64489,0.10635 2.23162,2.25645 1.54659,3.42363c-0.21946,-0.04321 -0.57135,-0.06328 -0.64548,-0.30981c-0.24451,-0.81387 -1.03971,-2.35459 -0.90112,-3.11382z" fill="#273a29"/><path d="M140.1996,72.0854c1.63493,-0.13198 4.35118,0.8814 4.70204,2.81792c0.12892,1.3437 -1.15485,0.91787 -1.32802,1.13701c-0.66291,0.83833 -1.70467,2.67261 -2.80165,3.2959c-0.19074,0.1084 -0.29593,1.78359 0.62379,1.95571c0.69001,-0.56865 0.26604,-1.30181 1.00147,-1.86621c0.58526,-0.10723 0.71038,-0.09668 1.19939,-0.40313c0.34794,-0.44341 0.28641,-1.07153 0.31175,-1.66187c0.28025,-0.14868 0.55977,-0.29883 0.83827,-0.45044c2.24056,-1.19824 0.4351,-1.77583 0.9751,-3.19453c0.43671,-0.18823 0.75286,-0.12349 1.25081,0.09551c1.41079,0.61919 1.14709,1.95513 1.6364,3.1125c0.59772,0.47695 1.20129,0.1582 1.85175,0.42363c1.08263,0.4415 1.2804,3.19878 0.09962,3.57041c-1.10607,-1.93564 0.99327,-1.75415 -2.64871,-3.54492c1.36244,2.25894 1.97774,1.71694 1.00938,4.49077c1.41372,2.66631 1.12219,1.2186 1.91182,0.93984c0.57867,0.45952 0.56988,1.26899 1.17785,2.01504l0.2593,-0.00645l0.26223,-0.33018c0.41899,-1.63345 -2.23705,-2.93745 -0.14796,-3.64072c1.08849,0.23086 1.41958,1.93521 1.43862,2.86992c0.03516,1.79927 -1.88691,2.51162 -3.02082,3.61934c0.13771,0.31274 0.12452,0.29209 0.40141,0.49541c0.99473,0.04409 2.19603,-0.94146 3.07063,-1.52959c0.66804,1.45781 1.09728,3.56016 -0.04688,4.89844c-0.74715,0.87349 -2.62087,1.1439 -3.46325,0.2877c-0.19924,-0.20244 -0.10255,-0.55459 -0.08497,-0.84141l-0.23,-0.2313c-0.30032,0.04775 -0.63581,0.20742 -0.83358,0.45601c-0.89365,1.12383 -2.71317,0.48779 -3.70775,1.53018c0.01611,1.63125 3.66527,-0.30234 4.06375,-0.0854c1.7536,0.95669 1.67595,1.05234 3.65662,0.98789c-3.4984,4.72939 -6.17055,2.80269 -8.68419,-0.07061c-0.48418,-0.55356 -4.23222,-0.98203 -4.5907,-2.42432c-0.22927,-0.92285 1.32919,-2.28032 1.52345,-3.26938c0.7659,-2.75889 -0.49224,-4.67944 -3.11531,-5.61401c-0.02447,-1.19004 -0.15675,-3.81563 0.05582,-4.83706c0.3034,-0.21797 0.46396,-0.27964 0.61632,-0.61289c-1.17551,-1.86401 -1.26532,-3.01289 0.76619,-4.38472z" fill="#f3eace"/><path d="M147.28607,82.21216c0.42778,0.07954 0.39701,0.09038 0.71052,0.40122c0.24465,0.59648 0.13185,1.18638 0.08936,1.84907c0.7867,0.96694 1.4899,1.65996 1.3727,3.03032c-0.19191,2.23872 -2.80839,3.49043 -4.82935,3.32988c-0.48022,-0.03809 -0.75271,-0.15117 -1.03092,-0.51299c0.35863,-0.54302 2.66922,-1.06641 3.5573,-1.38838c0.86728,-0.62153 1.70965,-1.53237 0.91269,-2.58354c-1.43716,-0.41909 -3.14578,2.59907 -4.87843,1.88101l-0.03194,-0.39097c0.41957,-1.09146 1.47173,-0.93618 2.41504,-1.51948c1.51085,-0.93457 0.59684,-1.20381 0.88881,-2.15039c0.95312,-0.77271 0.76414,-0.81006 0.82421,-1.94575z" fill="#273a29"/><path d="M146.49146,77.85308c2.08674,1.25977 -0.43657,2.70381 -1.34911,3.61641c-1.07545,1.07549 -0.00059,2.02793 -0.75476,3.31025c-3.57634,-1.87866 1.80868,-5.14995 2.10388,-6.92666z" fill="#273a29"/><path d="M142.25469,73.62026c0.57589,-0.00044 0.5567,-0.02212 1.06124,0.23101c0.48477,0.99697 -0.98858,0.62505 -1.36699,2.66689l-0.03545,0.20127c-0.16349,0.19438 -0.10358,0.11177 -0.4187,0.20933c-1.13493,-0.84551 -0.0148,-2.58486 0.75989,-3.3085z" fill="#273a29"/><path d="M153.59433,88.46396l0.37064,0.3123c0.22121,0.97764 -0.65632,1.26987 -1.44448,1.48667c-0.18312,-0.18208 -0.32083,-0.34321 -0.49224,-0.53643l0.03369,-0.36943c0.35306,-0.4396 0.99913,-0.65273 1.53238,-0.89312z" fill="#273a29"/><path d="M151.25034,93.92856l0.04981,0.00571l0.1172,0.14883l-0.15822,-0.05347l-0.04541,0.29063c-1.12805,0.75454 -2.2224,0.81943 -3.51452,0.60425l-0.32083,-0.20347c1.81366,-0.38906 1.66716,0.202 3.87198,-0.79248z" fill="#3d4d3c"/><path d="M138.21644,40.15327c1.78568,2.20547 2.88853,3.47095 4.06697,6.075l0.06505,-0.44004c1.56344,-1.76865 4.07971,-2.66162 6.36745,-2.99194c0.5523,6.07075 -1.17639,13.25039 -8.39896,13.87515c-0.34779,0.02725 -0.69631,0.04351 -1.04513,0.04863c4.76196,3.59341 8.16954,0.70371 11.13908,-3.21958c-2.49928,1.91133 -2.87285,2.56685 -6.16044,3.28096c1.85204,-1.46807 3.41358,-2.7917 5.01628,-4.53706l-0.14943,-0.12231c-0.4395,-0.36636 -0.61383,-0.43491 -0.74129,-0.94966c0.24905,-1.53252 4.00822,-0.75366 4.79492,-0.20156c-0.00732,1.00137 -0.59479,1.69307 -0.92295,2.56113c-2.03634,5.37437 -8.58984,9.24668 -13.46139,4.35806c-0.02124,0.6397 -0.02945,1.16016 -0.00469,1.79912c-0.44624,-0.43008 -0.51641,-0.57217 -1.09274,-0.67852l-0.01934,-1.09746c-3.32905,2.67642 -5.23325,2.72988 -9.0459,1.19077l-0.35174,0.0731c-0.59698,-0.41675 -1.97628,-1.27471 -2.30121,-1.85581c-0.8705,-1.55625 -3.19266,-4.36948 -2.93599,-6.22896c0.63229,-0.96973 3.42794,-1.11284 4.53005,-0.85107c1.86669,0.44355 -12.82558,-0.77388 0.3475,0.09302c-0.20349,-2.30508 -1.51656,-3.95332 -0.49737,-6.62285l0.04805,-0.50112c1.31088,-0.85488 5.70879,1.35718 6.72461,2.54692l0.10651,0.2458c1.16277,-2.2248 2.39614,-3.87832 3.92208,-5.84971z" fill="#8d8d5a"/><path d="M128.8708,44.55498c2.88531,1.02832 2.20525,0.58652 4.74819,2.2708c0.31659,-0.2064 0.42294,-0.68291 0.56886,-1.0686l0.10651,0.2458c-1.39731,3.78706 -1.17668,6.25649 1.43276,9.38379c-5.20439,-1.86929 -6.75655,-5.46167 -6.85632,-10.83179z" fill="#f8f5e4"/><path d="M142.34845,45.78823l0.34823,0.57788c0.20246,0.04116 3.99753,-1.64751 4.65385,-1.88481c0.14064,5.37451 -1.37211,9.07969 -6.56669,11.09033c2.37226,-3.22603 2.97716,-5.49844 1.49957,-9.34336z" fill="#f8f5e4"/><path d="M128.62395,59.10396l-0.35174,0.0731c-0.59698,-0.41675 -1.97628,-1.27471 -2.30121,-1.85581c-0.8705,-1.55625 -3.19266,-4.36948 -2.93599,-6.22896c0.63229,-0.96973 3.42794,-1.11284 4.53005,-0.85107c1.86669,0.44355 -12.82558,-0.77388 0.3475,0.09302c-0.20349,-2.30508 -1.51656,-3.95332 -0.49737,-6.62285c-0.25037,5.95547 2.27631,12.58433 9.1209,12.87056c0.30399,0.0123 0.60812,0.01714 0.91225,0.01479c-4.87858,3.24331 -8.45653,1.51816 -11.30228,-3.08203c-0.05977,-0.09697 -0.11852,-0.19453 -0.17653,-0.29253c2.31674,1.95879 3.40992,2.92822 6.41052,3.57026c-1.5652,-1.35688 -3.61297,-2.98052 -4.83536,-4.57822c0.28831,-0.47095 0.50454,-0.6958 0.4562,-1.23706c-0.90405,-1.17539 -3.61722,-0.39492 -4.80181,0.09683c0.68591,2.37949 1.81982,4.87529 3.6304,6.64893c0.33329,0.32651 1.65925,1.20073 1.79447,1.38105z" fill="#f8f5e4"/><path d="M137.66985,57.91318c0.38969,-0.10679 0.58819,-0.16802 0.99839,-0.2127l0.11837,0.18955c-0.02124,0.6397 -0.02945,1.16016 -0.00469,1.79912c-0.44624,-0.43008 -0.51641,-0.57217 -1.09274,-0.67852z" fill="#8d8d5a"/><path d="M138.1678,42.56631c3.0863,3.14019 5.61737,10.50146 0.28553,12.93721c-0.37724,-0.03867 -0.8894,-0.13799 -1.19822,-0.36973c-4.77837,-3.58506 -1.36376,-8.89277 0.91269,-12.56748z" fill="#f8f5e4"/><path d="M94.59655,190.61279l0.1005,0.09375c0.29608,1.03271 0.08175,8.13135 0.09537,9.76318c7.30753,-8.7627 16.94119,6.48047 6.04017,12.57275c-2.73866,1.01514 -4.53181,0.94775 -6.746,-1.021c-0.9083,1.67871 -1.13903,1.49414 -2.83183,1.05762c-0.02344,-2.47998 0.31278,-18.53613 -0.23689,-19.56299c-0.31966,-0.59766 -1.54088,-0.94043 -2.14036,-1.18213c1.23074,-0.44971 4.53108,-1.4751 5.71904,-1.72119z" fill="#1d3220"/><path d="M97.69706,199.96729c4.16703,-0.21094 4.70263,5.98828 3.61795,8.83447c-0.63639,1.66846 -1.01202,2.23389 -2.45606,3.14355c-5.47659,1.54248 -4.04719,-6.90088 -4.06609,-10.15576c0.98814,-1.13525 1.51964,-1.44287 2.9042,-1.82227z" fill="#ffffff"/><path d="M137.63572,93.66226c0.0608,-0.02769 0.12159,-0.05552 0.18239,-0.0832c3.77631,-0.496 6.99886,3.76582 7.52626,6.6252c0.83739,4.54028 -1.10812,11.29541 -5.84518,12.31465c-2.25419,0.07734 -3.35425,-0.03325 -5.15824,-1.60283c-4.68402,-4.07534 -4.58997,-17.26304 3.29477,-17.25381z" fill="#f3eace"/><path d="M137.47808,93.93926c8.89266,-0.65479 9.93398,13.24175 3.94025,17.37979c-1.17229,0.82661 -2.63084,1.14009 -4.03928,0.86821c-5.05071,-0.98057 -7.03871,-10.18652 -5.46897,-11.06235l0.41723,0.2127c0.33417,0.56411 0.87958,2.92837 1.09376,3.70181c1.43774,3.89634 5.30049,8.83081 8.68228,2.85322c2.0192,-3.56909 1.59977,-9.60103 -2.48155,-11.65796c-4.37081,-2.20283 -6.19165,3.30674 -7.40335,3.7519l-0.14972,-0.16025c-0.49414,-3.20098 2.47686,-5.49067 5.40934,-5.88706z" fill="#273a29"/><path d="M86.75561,110.02896c-0.67756,-1.46191 -1.18108,-3.49482 -1.52184,-5.09253c-1.64519,-7.46924 -1.12131,-15.25283 1.50982,-22.43423c4.28218,-11.56934 13.84976,-21.23115 25.01081,-26.31328c0.57164,0.89956 0.90375,1.40508 1.58146,2.21748c-8.42122,4.65044 -14.63514,9.26543 -19.88114,17.53066c-6.0976,9.60688 -7.25582,18.94204 -4.88868,29.86787c-0.57003,1.41694 -1.11852,2.8645 -1.81044,4.22402z" fill="#8d8d5a"/><path d="M61.36727,198.09814c4.22226,-0.48926 8.04531,2.52832 8.55044,6.74854c0.50513,4.22021 -2.49767,8.05371 -6.71612,8.5752c-4.24101,0.52295 -8.10024,-2.49902 -8.60816,-6.74121c-0.50791,-4.24219 2.52902,-8.09033 6.77384,-8.58252z" fill="#1d3220"/><path d="M61.26823,199.24365c4.8878,-0.37061 4.96369,6.34424 4.18944,9.65332c-0.36581,1.56299 -1.00337,2.51367 -2.38398,3.31641c-4.86803,0.47314 -4.73369,-6.41162 -4.10901,-9.63574c0.29109,-1.50293 1.00044,-2.55029 2.30356,-3.33398z" fill="#ffffff"/><path d="M164.99198,56.25264c3.92032,1.4373 7.7337,4.16206 10.96987,6.77476c13.2538,10.69819 20.27405,30.07515 14.09324,46.49399c-0.04102,0.10898 -0.08204,0.21753 -0.12599,0.32563c-0.50835,-1.03213 -1.35805,-3.31934 -1.85468,-4.50469c0.40727,-0.96797 0.74861,-3.06738 0.88193,-4.15869c0.79403,-6.52573 -0.19338,-13.56182 -2.81279,-19.60459c-4.85059,-11.19478 -12.15945,-17.71216 -22.67517,-23.13735c0.72664,-0.75776 1.05919,-1.21187 1.52359,-2.18906z" fill="#8d8d5a"/><path d="M45.0071,191.49463c2.64124,-0.10107 4.89909,0.25928 7.30915,1.39746c-0.18225,1.55127 -0.3264,3.06445 -0.67771,4.58643c-0.8768,-1.17773 -1.20481,-2.24707 -2.38794,-3.34131c-2.3645,-2.18701 -7.05585,-1.49268 -6.608,2.37598c0.23264,1.88672 2.45958,3.11279 4.16879,3.74561c5.0869,1.88232 8.72638,5.51807 4.86231,10.8457c-1.25447,1.72998 -3.6641,2.29248 -5.79551,2.47412c-2.77997,-0.00586 -4.14491,-0.34131 -6.57724,-1.70654c-0.17448,-0.97852 -0.42719,-4.0415 0.08541,-4.82959c1.13493,-0.01318 1.98404,5.68359 6.38635,4.98779c4.37359,-0.68994 5.24731,-5.03613 1.51041,-6.87744c-4.53606,-2.23535 -10.96709,-4.72119 -7.09877,-11.11816c0.94184,-1.52051 3.03708,-2.24854 4.82276,-2.54004z" fill="#1d3220"/><path d="M135.36908,171.95361c-3.19662,0.104 -6.6518,0.6123 -10.03184,0.76758c-8.54897,0.40576 -17.07523,-1.17773 -24.90885,-4.62451c-12.42534,-5.45508 -22.17414,-15.62256 -27.10106,-28.26606c0.91489,1.33052 1.65281,2.99663 2.5781,4.39028c4.2372,6.38115 9.17994,11.61064 15.39474,16.05938c10.21965,7.31543 21.042,9.65625 33.41182,10.11914l0.10797,-0.24463c3.91505,0.77783 6.44817,1.44727 10.54913,1.79883z" fill="#93c1bf"/><path d="M188.29271,197.94873c9.00239,-0.48633 5.43513,7.39893 6.35075,12.65332c0.1172,0.67383 0.99327,0.68994 1.55875,0.93311c-0.26516,0.80127 -0.80721,1.69336 -1.67595,1.85303c-2.13743,0.39258 -3.07649,-0.76318 -3.62732,-2.51514c-2.45679,2.2002 -5.02639,4.34619 -8.0311,1.20264c-0.64753,-1.0708 -1.19983,-3.06885 -0.46147,-4.20117c1.59538,-2.44336 5.16557,-2.62646 7.71759,-3.33398c0.23733,-0.06592 0.67683,-0.25635 0.75301,-0.50244c0.28567,-0.76611 0.02637,-2.80811 -0.32376,-3.48926c-0.33548,-0.65918 -0.93174,-1.14844 -1.64519,-1.34619c-2.37768,-0.67969 -2.73661,2.95459 -4.16937,3.69873c-0.29007,0.00146 -0.45122,0.06592 -0.68562,-0.11279c-3.36363,-2.58398 2.22972,-4.60693 4.23969,-4.83984z" fill="#1d3220"/><path d="M190.49752,205.36084l0.32962,0.08203c0.37797,0.68115 0.09962,3.54492 0.04541,4.46484c-1.27015,1.20703 -2.00411,1.61572 -3.75331,1.11914c-3.3607,-3.15234 0.79403,-4.83252 3.37828,-5.66602z" fill="#ffffff"/><path d="M153.23834,169.97168l0.14943,0.20947c1.84736,0.19189 4.76269,-0.22119 6.62177,-0.43359c9.97221,-1.13818 19.28957,-4.87939 27.15219,-11.13281c5.14359,-4.09131 12.39092,-11.79053 14.76567,-18.04072c0.05713,0.85005 -0.56695,2.02603 -0.91269,2.83594c-1.74334,4.08076 -3.88809,7.64912 -6.8049,11.0124c-9.12252,10.55273 -22.06427,17.05078 -35.97878,18.06592c-3.16585,0.21826 -11.66867,0.26953 -14.6117,-0.47314c0.56109,-0.1626 2.87681,-0.47021 3.69164,-0.6167c2.19163,-0.39258 3.79726,-0.81885 5.92736,-1.42676z" fill="#93c1bf"/><path d="M120.9909,197.93701c1.78832,-0.10254 3.63773,0.19922 4.81763,1.24365c3.13831,2.78174 4.02478,6.90381 -1.53605,6.22266c-1.20203,-0.14648 -5.07532,-0.13184 -6.04046,0.01025c0.55875,5.03174 3.93732,7.44287 8.5393,4.6626l1.34735,-0.96973c-0.98462,2.11816 -2.17815,3.88477 -4.65502,4.38281c-1.91255,0.36768 -3.89293,-0.03809 -5.50589,-1.12939c-5.50486,-3.75 -4.07825,-13.17041 3.03312,-14.42285z" fill="#1d3220"/><path d="M121.06634,199.11914c3.10198,-0.0835 3.36494,2.78467 3.31484,5.2251l-2.7139,0.01465l-3.27851,-0.02344c0.10973,-2.16943 0.63053,-4.11182 2.67757,-5.21631z" fill="#ffffff"/><path d="M220.43174,197.94873c2.2766,-0.13916 4.89601,0.58887 6.03284,2.74219c4.09319,7.75635 -5.76622,3.43066 -8.42957,4.83984c-1.65105,2.20166 3.24203,8.83594 8.47206,4.05029c0.31351,-0.25342 0.13917,-0.17725 0.54351,-0.23584c0.09376,0.46436 -0.25198,1.03564 -0.49224,1.42383c-1.98946,3.2168 -6.25259,3.62695 -9.27634,1.58789c-1.67888,-1.11475 -2.82451,-2.87109 -3.16732,-4.85596c-0.80575,-4.56885 1.57487,-8.7876 6.31705,-9.55225z" fill="#1d3220"/><path d="M220.16218,199.23633c2.511,-0.33252 3.17025,1.30371 3.71522,3.59326c0.11866,0.49658 0.06446,1.00781 -0.24758,1.42822c-0.61676,0.19336 -1.42104,0.1377 -2.08908,0.1377c-1.2804,-0.00146 -2.56081,-0.0249 -3.83975,-0.06592c0.03223,-0.3252 0.07325,-0.65039 0.12452,-0.97266c0.293,-1.90869 0.7618,-2.96924 2.33666,-4.12061z" fill="#ffffff"/><path d="M152.40769,197.93994c1.40346,-0.09668 2.76444,0.12891 3.97892,0.87598c1.46499,0.90234 2.47144,2.44189 2.86113,4.10449c0.1421,0.60498 0.22854,1.33447 -0.17433,1.86475c-0.80868,1.06348 -7.84797,0.49951 -9.50048,0.60498c0.05274,1.4209 0.3179,2.81982 1.18078,3.98877c0.74568,1.02832 1.8957,1.6875 3.15999,1.81055c1.82245,0.19043 3.04279,-0.54346 4.38033,-1.59668c0.22414,-0.19775 0.19191,-0.14941 0.47905,-0.27393l0.05567,0.20801c-1.64079,4.09131 -6.3024,5.36279 -9.75979,2.86084c-5.34459,-3.86865 -3.7788,-13.31689 3.33872,-14.44775z" fill="#1d3220"/><path d="M152.18061,199.22754c3.11751,-0.35742 3.52477,2.74658 3.49987,5.13428l-2.44068,0.03662l-0.48345,0.00293c-0.79549,0.00439 -2.54469,0.15527 -3.01642,-0.31201c-0.4644,-1.54834 1.18957,-3.98877 2.44068,-4.86182z" fill="#ffffff"/><path d="M138.53156,197.93701c6.62968,-0.51123 4.75156,8.94287 4.94113,13.35352c0.42866,0.55518 0.83182,1.02979 1.28773,1.55859l-0.11749,0.16113c-0.37211,-0.01758 -0.43979,-0.03662 -0.80252,0.02051c-1.7032,0.2666 -4.01482,0.10254 -5.76446,0.05859c0.84852,-0.65771 1.14636,-0.86572 1.82275,-1.68604c0.17551,-2.06104 0.47363,-8.98389 -0.74729,-10.40186c-0.42661,-0.48779 -1.03575,-0.77637 -1.68298,-0.7998c-0.9206,-0.03809 -1.81571,0.30762 -2.47057,0.95654c-0.73836,0.72217 -0.68547,1.00342 -0.66833,1.99512c-0.00615,2.72168 0.00747,5.44189 0.04058,8.16357c0.37973,0.56104 1.04527,1.21875 1.52169,1.72559c-2.04835,0.18896 -4.75801,0.08496 -6.87243,0.05127c0.6947,-0.62256 1.30619,-1.09863 1.79154,-1.89551c-0.00703,-3.05713 0.16774,-6.90088 -0.11837,-9.91553c-0.07017,-0.74121 -0.99444,-1.2627 -1.5923,-1.64355l0.02315,-0.20215c0.93408,-0.54346 4.0362,-1.24512 5.21171,-1.54395c-0.02666,0.95068 -0.05845,1.8999 -0.09508,2.85059c1.38823,-1.59668 2.18006,-2.31152 4.29155,-2.80664z" fill="#1d3220"/><path d="M149.90694,59.51558c4.47995,-0.31436 7.11108,2.29028 9.88138,5.36733c-3.26694,1.68296 -6.41081,4.45063 -10.18317,4.6957c-2.82597,0.18354 -5.51248,-1.08193 -7.61006,-2.90405c3.25067,-3.26689 7.49139,-4.0418 11.8058,-2.44937l-0.07911,0.25093c-0.48345,0.08188 -0.67536,0.18354 -1.11779,0.37017l-1.31849,1.01646c-0.83505,-0.2373 -2.67947,-0.92168 -3.28598,-0.15996c0.24905,0.54185 1.72137,1.18799 2.18577,1.19795c1.64958,0.03545 4.43014,-1.68955 5.7501,-2.52246c-5.81456,-4.0437 -12.28763,-2.49712 -16.79102,2.6603c1.67639,-4.5375 6.19619,-6.91128 10.76258,-7.523z" fill="#8d8d5a"/><path d="M69.56098,198.61523c2.39746,-0.03516 4.79507,-0.03955 7.19253,-0.01465c-0.56197,0.4585 -1.0649,0.90381 -1.60329,1.38574c0.26092,1.62451 2.45123,7.07813 3.17874,9.00293c0.75491,-2.23242 2.85,-6.37354 2.94259,-8.70557c0.02315,-0.58447 -1.0129,-1.28174 -1.52257,-1.63623c1.81396,-0.04834 3.62864,-0.06299 5.44318,-0.04395c-0.25989,0.271 -1.00938,0.9873 -1.17771,1.26563c-1.42573,2.36426 -2.56799,5.75977 -3.58982,8.34082c-1.29784,3.13623 -2.44346,6.11426 -4.08001,9.24023c-1.04952,2.00391 -3.59319,3.24902 -5.45915,1.13818c-0.22795,-0.25781 -0.09171,-0.81006 -0.01685,-1.13965c0.38075,-1.67285 1.90259,0.31494 3.07195,-0.52441c1.27249,-0.65625 1.85966,-2.47266 2.36333,-3.76904c-0.83256,-2.25732 -1.81835,-4.49561 -2.67273,-6.74707c-1.19836,-3.15674 -1.84208,-5.21191 -4.07019,-7.79297z" fill="#1d3220"/><path d="M124.99634,59.66001c5.13744,-0.4585 10.00488,2.54751 12.21512,7.14653c-5.38781,-4.92334 -10.10069,-6.81094 -16.73711,-2.57607l0.21755,0.16362c1.35673,1.00518 4.06682,2.79419 5.81969,2.41729c1.16775,-0.25093 1.4458,-0.87847 2.04469,-1.79897c-1.50865,0.35479 -2.27177,0.72832 -3.77265,0.29106c-0.9269,-0.41997 -1.60431,-0.76157 -2.59626,-1.00181c4.7353,-1.47363 8.56919,-1.28569 12.25731,2.31724c-7.12382,5.70586 -10.94409,2.37158 -17.83674,-1.76338c2.60241,-3.01626 4.38927,-4.56313 8.38841,-5.19551z" fill="#8d8d5a"/><path d="M168.12414,64.94136c3.57898,2.57271 7.05541,4.8936 10.12164,8.10146c7.43338,7.77964 11.47383,17.37642 7.1184,27.74531c-0.20656,-0.40356 -1.62907,-2.33203 -1.96163,-2.79756c1.49722,-2.33423 1.23206,-7.03989 0.64753,-9.65332c-2.27514,-10.17993 -9.26462,-16.17187 -15.92595,-23.3959z" fill="#abb195"/><path d="M99.96985,71.66309c1.91929,-1.68457 5.92385,-4.84849 8.09453,-6.08159c-1.90991,1.77334 -3.12952,3.33047 -4.89235,5.17354c-5.42678,5.67363 -10.56334,12.60396 -11.11051,20.71538c-0.14577,2.16123 0.48359,4.56694 1.15573,6.62769c-0.67316,0.84287 -1.18371,1.5772 -1.79315,2.47046c-5.35484,-8.70688 0.10314,-20.33452 6.52274,-26.90728c0.51509,-0.63208 1.4061,-1.41987 2.02301,-1.99819z" fill="#abb195"/><path d="M97.94684,73.66128c0.51509,-0.63208 1.4061,-1.41987 2.02301,-1.99819c-0.17023,0.97603 -0.6046,2.17749 -1.24437,2.93452l-0.22151,0.03018c-0.21448,-0.35933 -0.28172,-0.68672 -0.55714,-0.9665z" fill="#cfd1bf"/><path d="M234.00344,197.95166c1.12951,-0.03809 4.29976,0.13184 4.73339,1.55566c0.15675,0.51416 -0.03662,2.11523 -0.33548,2.61035c-0.50542,-0.03223 -1.49283,-1.58936 -2.00997,-2.08447c-0.97422,-0.93604 -2.9754,-1.4751 -3.90714,-0.14941c-2.00997,2.95605 3.0926,4.21289 4.88282,5.42139c2.44361,1.65234 3.04865,3.67529 1.28773,6.18604c-1.05187,1.5 -2.87578,1.86914 -4.58836,2.08154c-1.27454,-0.03516 -3.16439,-0.31055 -4.29683,-0.97266c-1.00206,-0.58447 -1.08996,-3.09082 -0.4981,-3.89209c0.51861,0.22412 1.14416,1.7168 1.85468,2.28662c3.97746,3.19189 8.23326,-1.16162 2.44947,-3.62842c-3.06184,-1.30518 -6.40349,-4.15869 -3.68592,-7.61719c1.04894,-1.33594 2.53737,-1.62012 4.1137,-1.79736z" fill="#1d3220"/><path d="M165.69664,197.95166c1.76825,-0.03516 3.09993,0.1626 4.65721,1.02979c0.04834,0.82471 0.2886,2.48437 -0.17873,3.04395c-0.52593,-0.19922 -1.44009,-1.48535 -1.94258,-1.97314c-1.0255,-0.99609 -2.7747,-1.48828 -3.87491,-0.26221c-1.90303,2.09619 1.04894,3.61084 2.70877,4.36816c3.4735,1.58496 5.96838,4.10303 2.89776,7.7168c-1.21301,1.42676 -2.70145,1.59229 -4.47263,1.72412c-1.5778,-0.09961 -4.68212,-0.26953 -4.78906,-2.47705c-0.03369,-0.68994 -0.16554,-1.92773 0.26809,-2.45654c0.1758,0.08057 1.09435,1.40771 1.40786,1.92773c1.30824,2.16797 5.69297,2.0625 5.79698,-0.51855c-0.42778,-2.00098 -4.15912,-3.15674 -5.4322,-4.21729c-3.96427,-3.30029 -1.6613,-7.40918 2.95343,-7.90576z" fill="#1d3220"/><path d="M173.85373,199.5791c-0.51128,-0.07471 -1.59684,-0.14209 -1.80487,-0.60791c0.9039,-0.87305 1.86787,-1.65967 2.77323,-2.54443c0.75154,-0.73242 1.58219,-2.50195 2.52711,-2.67041c0.36918,0.52734 0.19338,2.55322 0.16847,3.30762l0.05713,0.97998c1.09728,0.91113 3.23178,-0.79541 3.5277,1.02539c-0.3179,0.83496 -2.67947,0.47168 -3.56726,0.43799l-0.0249,1.57324c0.06299,2.5166 -0.2344,6.25049 0.18459,8.7085c0.29739,1.74023 2.25902,1.41211 3.6156,0.93018c-0.77791,1.89551 -1.23938,2.57959 -3.42223,2.86963c-1.8957,0.25195 -3.63904,-1.19531 -3.8251,-3.06738c-0.35306,-3.56104 -0.21828,-7.34619 -0.20949,-10.94238z" fill="#1d3220"/><path d="M177.51035,201.08057c-0.27395,-0.2915 -0.21389,-3.65479 0.00732,-4.0166l0.05713,0.97998c1.09728,0.91113 3.23178,-0.79541 3.5277,1.02539c-0.3179,0.83496 -2.67947,0.47168 -3.56726,0.43799z" fill="#273a29"/><path d="M131.95579,224.9458c0.95649,-0.21973 1.51715,-0.46289 2.45445,-0.22559l-0.00864,0.39404c-0.69367,0.5332 -0.7388,0.55225 -1.61809,0.479c1.83696,3.65625 -1.38735,4.48389 -4.10579,5.02734c-0.42148,0.36621 -0.33211,0.15234 -0.4124,0.59326c1.38105,1.2583 6.13173,-0.70459 6.16792,2.78027c0.05098,4.93066 -12.57712,3.05273 -6.9785,-1.04004c-1.46675,-1.24658 -0.70305,-1.78418 0.35702,-2.88135c-2.1512,-1.58936 -1.85292,-4.2041 0.68943,-5.18701c0.69822,-0.25635 1.10739,-0.2373 1.83315,-0.24316c0.5296,0.08789 1.10724,0.16699 1.62145,0.30322z" fill="#1d3220"/><path d="M129.03093,225.45264c0.58541,-0.20654 0.64006,-0.19482 1.27367,-0.20361l0.45429,0.5376c1.06988,1.26709 1.01436,4.22314 -1.23821,3.6958c-1.787,-0.41895 -1.53443,-2.76562 -0.48975,-4.02979z" fill="#ffffff"/><path d="M131.95579,224.9458c0.95649,-0.21973 1.51715,-0.46289 2.45445,-0.22559l-0.00864,0.39404c-0.69367,0.5332 -0.7388,0.55225 -1.61809,0.479c0.12203,-0.30029 0.10504,-0.14355 0.04205,-0.47168z" fill="#3d4d3c"/><path d="M128.50119,224.88574c0.69822,-0.25635 1.10739,-0.2373 1.83315,-0.24316l-0.02974,0.60645c-0.63361,0.00879 -0.68825,-0.00293 -1.27367,0.20361c-0.22121,-0.47314 -0.05904,-0.28418 -0.52974,-0.56689z" fill="#556052"/><path d="M128.35864,233.18701c1.61223,-0.05566 6.29215,-0.06445 3.58059,2.66016c-2.08425,0.78516 -5.76167,-0.05273 -3.58059,-2.66016z" fill="#ffffff"/><path d="M206.64761,197.93994c0.84677,0.05127 1.29359,-0.05566 1.76532,0.68115c0.08936,1.65674 -0.13624,3.28271 -2.09201,2.51367c-1.87519,-0.73828 -2.83183,-0.09961 -3.89249,1.48389c-0.01465,2.70703 -0.12745,6.14502 0.03809,8.79492c0.67976,0.73389 1.01817,1.07227 1.78729,1.70361c-2.40845,0.03516 -4.23676,0.15381 -6.62177,-0.2124l0.66511,-0.12891l-0.03516,-0.08203c-0.25051,-0.17432 -0.15236,-0.07324 -0.31058,-0.29004c0.19777,-0.4248 0.48198,-0.63721 0.82333,-0.95947c0.20656,-2.75684 0.06006,-7.08398 -0.01758,-9.94043c-0.01904,-0.68701 -1.38002,-1.4751 -1.988,-1.88965l0.06446,-0.14209c0.88632,-0.4292 4.34078,-1.2627 5.50838,-1.57324l-0.04688,3.39258c1.37123,-1.80908 2.0422,-2.95312 4.3525,-3.35156z" fill="#1d3220"/><path d="M80.4891,221.55176c1.15442,-0.14648 2.32319,-0.05127 3.49167,-0.11572c2.61179,-0.14502 6.52948,0.31934 5.26372,3.99316c-0.41503,1.20557 -1.33754,1.71387 -2.44771,2.22363c0.79871,1.04883 3.1682,4.81348 4.08777,5.15332c0.04629,0.01611 0.0942,0.0293 0.14137,0.04248l0.00952,0.14795c-1.32626,0.06738 -2.62937,0.39844 -3.47262,-0.73828c-0.65998,-1.02686 -2.42442,-4.09277 -3.30752,-4.43994c-1.21052,0.3457 -0.77249,2.8916 -0.67829,3.8877c0.06417,0.67969 0.40536,0.75439 0.91958,1.08984l0.0271,0.16699c-0.93701,0.10547 -2.83769,0.104 -3.76767,-0.05859c0.20026,-0.17871 0.5,-0.43652 0.54937,-0.78955c0.41943,-2.99707 0.22517,-6.5376 0.10768,-9.58301c-0.01919,-0.49512 -0.56212,-0.29883 -0.92397,-0.97998z" fill="#1d3220"/><path d="M83.54932,222.13477c3.06066,-0.18164 5.03899,1.63037 3.05539,4.44141c-0.47539,0.26221 -0.98623,0.45264 -1.51671,0.56689c-0.66672,0.14502 -0.75564,0.07178 -1.26165,-0.25342c-0.6153,-0.94775 -0.31922,-3.46875 -0.27703,-4.75488z" fill="#ffffff"/><path d="M102.42869,224.58838l0.2196,0.1333c0.04058,0.29004 0.07252,0.57422 0.08307,0.86572c0.77601,-0.1582 1.80355,-1.43701 3.31045,-0.95801c0.96499,0.26367 1.77572,0.8584 2.22518,1.77393c1.34882,2.74512 0.02227,6.54199 -3.28774,6.85107c-0.6213,0.05859 -1.76004,-0.38672 -2.26195,-0.15234l-0.05845,0.59473c-0.00396,1.71387 -0.11134,2.03906 1.40669,3.02344c-1.36493,0.02051 -2.76898,-0.00146 -4.13714,-0.00732l0.77249,-0.94336c0.19821,-2.3877 0.1487,-6.71045 -0.00352,-9.20068c-0.03135,-0.51123 -0.65866,-0.80859 -1.1175,-1.09717c1.11325,-0.44092 1.67698,-0.59912 2.84883,-0.8833z" fill="#1d3220"/><path d="M103.72097,225.74561c3.69427,-0.33398 3.87857,4.46924 1.74232,6.54932c-3.56492,1.37109 -2.91241,-3.36914 -2.666,-5.46094c0.06622,-0.5625 0.47305,-0.8042 0.92368,-1.08838z" fill="#ffffff"/><path d="M119.77261,224.79346c1.50352,-0.4292 3.12102,-0.01025 4.22724,1.09424c1.10636,1.10449 1.52784,2.72168 1.10182,4.22607c-0.42617,1.50293 -1.63317,2.65869 -3.15442,3.01904c-2.27997,0.54053 -4.57371,-0.83936 -5.16484,-3.10693c-0.59112,-2.26758 0.73689,-4.59082 2.9902,-5.23242z" fill="#273a29"/><path d="M120.33355,225.23877c3.49005,0.02637 3.64432,5.61475 1.27528,7.37402c-2.50909,0.07471 -2.92852,-2.38037 -2.81293,-4.45898c0.07882,-1.41504 0.4751,-2.04199 1.53766,-2.91504z" fill="#ffffff"/><path d="M111.14614,198.36914c0.40405,-0.05273 0.67141,-0.13916 1.02799,0.03955c0.11954,1.0459 0.05845,3.07471 0.05552,4.229c-0.02769,2.84473 -0.02154,5.68799 0.01831,8.53271l0.05655,0.0791c0.58541,0.84521 0.92485,1.12354 1.6802,1.8252c-2.06213,0.12012 -4.13319,0.07617 -6.1978,0.04834c-0.20319,0 -0.31424,-0.04248 -0.51685,-0.08643c-0.08057,-0.56104 1.24217,-1.4209 1.2763,-1.979c0.19133,-3.1333 0.22737,-7.12354 -0.09815,-10.23193c-0.04424,-0.42187 -1.35834,-0.79834 -1.58981,-1.26123c0.62028,-0.54932 3.35103,-1.00195 4.28774,-1.19531z" fill="#1d3220"/><path d="M160.28496,225.73975c5.77501,-4.02979 5.38092,2.62061 5.21831,6.09521c-0.02197,0.48486 0.41166,0.67969 0.79549,0.99756l0.00879,0.15527c-0.82479,-0.03223 -3.00324,0.08496 -3.4691,-0.18164c0.24758,-0.14209 0.5523,-0.21533 0.57135,-0.51855c0.10987,-1.78271 0.54205,-4.4751 -0.36185,-6.05566c-0.44975,-0.78369 -1.63054,-0.56836 -2.23265,-0.02344c-0.60944,1.30957 -0.23293,4.30225 -0.25491,5.82568c-0.00732,0.44092 0.30325,0.53906 0.67536,0.80273l-0.41459,0.11719c-0.66657,0.05566 -2.09201,0.23584 -2.64578,0.02051l-0.07032,-0.20508c0.9083,-1.24219 0.68269,-4.875 0.2007,-6.32227c-0.07178,-0.21533 -0.39115,-0.58008 -0.6153,-0.64014c-3.13509,-0.84375 -2.06857,5.01855 -1.96602,6.60059c-0.00586,-0.08789 0.54498,0.5332 0.57867,0.58594c-1.0797,-0.14502 -2.40991,0.28418 -3.31968,-0.02197c0.32816,-0.40723 0.63288,-0.72803 0.62995,-1.32422c-0.01025,-1.65234 0.25637,-3.66064 -0.07764,-5.26904c-0.03369,-0.15674 -0.62995,-0.63135 -0.81747,-0.84082c0.4688,-0.4541 2.09348,-0.96094 2.72049,-0.68262l0.09962,0.86865c0.6988,-0.05713 0.83358,-0.70459 2.27074,-1.14111c1.33168,0.01611 1.65251,0.11133 2.47584,1.15723z" fill="#1d3220"/><path d="M159.488,51.4292c2.38501,-0.20566 3.64197,0.12554 5.79551,1.0604c-2.32055,4.3333 -5.17729,7.02598 -10.40146,5.0855c1.07091,-1.1647 2.03195,-2.32603 3.27719,-3.29619c1.58952,-0.78457 3.01935,-0.87686 4.74804,-1.08604c-4.9297,-1.05981 -6.47234,1.12236 -9.40379,4.44624c1.2262,-3.41924 2.448,-5.06851 5.9845,-6.20991z" fill="#8d8d5a"/><path d="M159.86304,54.45132l0.14064,0.0542l0.03369,0.15938c-0.63874,0.55781 -1.57633,1.1061 -2.31176,1.56885l-0.08936,-0.01494l-0.10841,-0.15923c0.55084,-0.7106 1.53824,-1.21465 2.3352,-1.60825z" fill="#cfd1bf"/><path d="M111.51048,52.53589c5.45197,-2.56011 9.77063,-0.77681 11.59293,4.93711c-2.44463,-2.70586 -4.47292,-5.08447 -8.50751,-4.39351c0.69704,0.32446 0.99341,0.11909 1.72972,0.45674c3.06462,1.13379 3.2851,1.89976 5.66703,4.05308c-5.28555,1.72427 -8.10464,-0.51958 -10.48218,-5.05342z" fill="#8d8d5a"/><path d="M116.32562,53.53623l-0.20305,0.14443c0.04556,0.45176 2.71024,1.45181 3.38487,2.60405l-0.07838,0.14224c-0.91211,-0.16172 -3.15897,-2.00464 -3.92911,-2.5689c-0.41694,-0.30571 -0.80868,-0.34395 -1.15251,-0.71353l0.24846,-0.06504c0.69704,0.32446 0.99341,0.11909 1.72972,0.45674z" fill="#cfd1bf"/><path d="M145.82752,223.69189c-0.39789,0.94482 -1.74832,3.87598 -1.7073,4.75488l0.16554,0.0498c0.18254,0.05713 0.2889,0.09521 0.46279,0.16406c0.07061,0.38818 0.08336,0.19922 -0.05963,0.58301c-0.41606,0.11426 -0.54014,0.1084 -0.96455,0.13623c-0.45444,0.39551 -1.12819,2.43896 -0.91782,2.98389c0.28479,0.19189 0.477,0.3208 0.74524,0.53906c-0.29329,0.2168 -2.6575,0.2168 -2.99269,0.00732c0.59054,-0.99023 1.02476,-1.23926 1.48785,-2.40674c1.13859,-2.87256 2.22357,-5.75244 3.29052,-8.64697c0.24641,-0.66943 0.68591,-1.06641 1.39922,-0.86719c1.31263,1.60693 2.57106,6.91699 3.68006,9.03076c0.64606,1.22754 0.41459,2.09033 1.80048,2.87256c-0.22414,0.19336 -3.74745,0.25195 -4.05217,-0.08203l0.5816,-0.30029c0.20363,-0.6958 -0.64606,-2.77441 -1.05919,-3.33105l-0.08936,-0.66504c-0.47905,-1.28027 -1.25462,-3.71631 -1.77059,-4.82227z" fill="#1d3220"/><path d="M189.25667,231.19336c-4.60448,5.51221 -10.46884,-0.82031 -6.52801,-5.41699c0.94346,-1.10156 2.64431,-1.09863 3.99504,-1.06201c1.32435,0.5625 2.91534,1.95996 2.34692,3.53906c-0.65925,0.57715 -1.01378,0.4541 -1.86494,0.27979c-1.22913,0.03369 -2.45679,0.08643 -3.68446,0.15967c-0.72371,1.88232 1.61882,3.30908 3.21273,3.64014c0.89072,-0.43945 1.6027,-0.76465 2.52272,-1.13965z" fill="url(#color-1)"/><path d="M186.7237,224.71436c1.32435,0.5625 2.91534,1.95996 2.34692,3.53906c-0.65925,0.57715 -1.01378,0.4541 -1.86494,0.27979c-1.22913,0.03369 -2.45679,0.08643 -3.68446,0.15967l0.05127,-0.7251c0.08497,-1.25537 0.81454,-3.14648 2.37036,-2.82129c0.21535,-0.271 0.45122,-0.31348 0.78084,-0.43213z" fill="#ffffff"/><path d="M186.7237,224.71436c1.32435,0.5625 2.91534,1.95996 2.34692,3.53906c-0.65925,0.57715 -1.01378,0.4541 -1.86494,0.27979l0.06739,-0.53467c-0.0586,-1.49268 -0.27249,-1.85596 -1.33021,-2.85205c0.21535,-0.271 0.45122,-0.31348 0.78084,-0.43213z" fill="#1d3220"/><path d="M183.5725,227.96777c1.26722,0.03809 2.43042,0.0791 3.70057,0.03076l-0.06739,0.53467c-1.22913,0.03369 -2.45679,0.08643 -3.68446,0.15967z" fill="#3d4d3c"/><path d="M98.82261,231.01318c-4.21654,5.49609 -9.90072,0.01611 -6.97527,-4.71533c1.66438,-2.69092 7.67686,-2.09326 6.74044,2.32471c-1.32391,0.11865 -3.96603,0.09375 -5.19003,-0.16992c-0.77117,1.12207 -0.05464,2.55908 1.03223,3.19043c0.78128,0.44678 1.71155,0.55371 2.57355,0.29443c0.58819,-0.17139 1.28143,-0.60352 1.81908,-0.92432z" fill="#1d3220"/><path d="M93.25945,228.10254c-0.21301,-0.28711 -0.21653,-0.24756 -0.16423,-0.6416c0.53121,-3.99902 4.41154,-1.84717 3.59729,0.36621l-0.41855,0.14941c-0.9981,0.02197 -2.02418,0.0249 -3.01452,0.12598z" fill="#ffffff"/><path d="M93.25945,228.10254c0.99034,-0.10107 2.01642,-0.104 3.01452,-0.12598l-0.02622,0.24023c0.72678,0.44824 1.46558,0.38232 2.34003,0.40576c-1.32391,0.11865 -3.96603,0.09375 -5.19003,-0.16992z" fill="#273a29"/><path d="M172.28325,224.70557c3.63172,1.64502 0.23147,5.98242 2.56227,7.75195c-0.05274,0.35449 -0.25784,0.47168 -0.53033,0.71777c-1.09142,0.30615 -1.44595,-0.05713 -2.15501,-0.83496c-1.13977,-0.07031 -2.81132,2.21631 -4.47995,0.14355c-0.76473,-0.95068 -0.42924,-2.56348 0.50396,-3.23437c1.07091,-0.77051 3.3563,-0.59766 3.93204,-1.53955c0.07618,-0.62988 -0.00586,-1.16455 -0.20363,-1.77393c0.00732,-0.62695 0.03809,-0.6958 0.37064,-1.23047z" fill="#273a29"/><path d="M171.40572,228.63428c0.26809,0.00732 0.28714,0.0293 0.5523,0.09375c0.51861,0.79541 0.36918,2.19873 -0.22561,2.9165c-0.35746,0.43213 -1.00352,0.4834 -1.51187,0.53467c-2.14036,-1.52637 -0.47759,-2.82422 1.18518,-3.54492z" fill="#ffffff"/><path d="M93.21725,98.0981c1.31659,-1.52988 4.70849,-5.18687 6.2942,-6.34424c-1.96045,2.5437 -3.93014,4.7666 -5.57855,7.56094c-0.30296,0.49731 -1.34355,2.27725 -1.57062,2.7873c-0.68635,1.44492 -2.37007,5.07744 -2.77294,6.5978c-0.33636,0.85547 -1.07955,3.47476 -1.19016,4.36201c-0.18386,-0.8291 -0.1651,-1.8293 -0.66613,-2.36353c-0.45283,-0.16626 -0.65588,-0.05127 -1.12468,0.08232l0.14723,-0.75176c0.69192,-1.35952 1.24041,-2.80708 1.81044,-4.22402c0.85746,-1.80322 1.83915,-3.52163 2.85806,-5.23638c0.60944,-0.89326 1.11999,-1.62759 1.79315,-2.47046z" fill="url(#color-2)"/><path d="M134.31047,183.55664c1.04146,0.41455 1.70701,3.63281 2.04425,4.771c0.33871,-0.87451 1.27967,-4.51318 2.23001,-4.49121c0.75623,0.67383 1.52491,3.49072 1.90024,4.57471c0.3431,-0.98877 1.14123,-4.09717 1.68548,-4.60986c0.51099,-0.00293 0.48022,-0.08936 0.82128,0.15527c0.0794,0.5918 -0.2763,1.30078 -0.50059,1.89697c-0.30003,0.94629 -1.09201,4.38867 -2.1638,4.48828c-0.78875,-0.59473 -1.59699,-3.47168 -1.98624,-4.58643c-0.47129,1.09863 -1.09054,4.43994 -1.99195,4.60693c-1.29798,-0.61963 -2.23983,-4.82373 -2.4839,-6.25781c-0.04102,-0.2417 0.24963,-0.37939 0.44521,-0.54785z" fill="#8d8d5a"/><path d="M124.05478,188.41846c0.35511,-0.99756 1.16613,-4.46191 2.25756,-4.55127c0.81234,0.56689 1.58278,3.4043 1.95709,4.51025c0.27366,-0.90674 1.01627,-3.96387 1.49503,-4.49854c0.63537,-0.04248 0.3787,-0.12891 0.84999,0.11865c0.13932,0.49072 -0.05801,0.90234 -0.21448,1.40332c-0.35174,1.03125 -1.13977,5.03174 -2.42413,4.74023c-0.88691,-0.8335 -1.37285,-3.06006 -1.82406,-4.35352c-0.316,0.93604 -1.19851,3.91846 -1.81586,4.46777c-0.33915,0.00439 -0.41108,0.05127 -0.71257,-0.25488c-0.70583,-0.71484 -2.09597,-5.45654 -2.11838,-6.25049c0.35409,0.03223 0.52476,0.06592 0.87387,0.14062c0.78157,0.77637 1.32274,3.34131 1.67595,4.52783z" fill="#8d8d5a"/><path d="M150.85772,183.65039c0.54058,0.41162 1.4313,3.89648 1.68474,4.74756c0.45415,-1.06787 1.27015,-3.97266 1.68181,-4.46777c0.48491,-0.23145 0.24758,-0.22119 0.72957,-0.0791c0.29153,0.69287 -0.98008,4.021 -1.23059,4.88379c-0.20656,0.71191 -0.56256,1.49707 -1.39321,1.53662c-0.55084,-0.31934 -1.49429,-3.63281 -1.80341,-4.4751c-0.41313,1.05029 -1.05773,3.81885 -1.73895,4.47656c-1.59391,0.08057 -2.94434,-6.03369 -2.68973,-6.41455c0.42045,-0.0249 0.5274,-0.07324 0.90683,0.104c0.4395,0.63867 1.15734,3.45703 1.44155,4.43408c0.52154,-1.31396 0.79549,-2.84326 1.4606,-4.11768c0.27835,-0.5332 0.41459,-0.46875 0.95078,-0.62842z" fill="#8d8d5a"/><path d="M123.40579,33.48047c3.45314,1.62217 4.82247,4.23296 2.97496,7.78755c-0.25037,0.26704 -0.49429,0.53071 -0.89101,0.39463c-3.28276,-1.12471 -2.53341,-5.60347 -2.08395,-8.18218z" fill="#8d8d5a"/><path d="M124.1065,35.37041c1.54557,0.6687 2.02286,3.43066 2.11355,4.95c-0.17888,-0.18999 -0.71492,-1.84365 -0.89277,-2.28618c-0.32069,-0.65244 -0.63053,-1.19385 -0.9918,-1.81875c0.15705,0.87744 0.4458,2.09341 0.39291,2.94141c-0.56314,-1.30034 -0.51714,-2.44365 -0.62189,-3.78647z" fill="#cfd1bf"/><path d="M111.26773,186.84082c1.32875,-0.04248 3.16468,-0.2168 4.34488,0.33545l-0.00337,0.19775c-1.57311,0.62549 -14.43502,0.19629 -17.17749,0.18311c-7.74601,-0.03955 -15.86163,0.02197 -23.6072,-0.23877c-1.16233,-0.04395 -2.87886,0.05859 -4.16468,0.0498c1.28802,-0.22119 4.33184,-0.24756 5.68491,-0.25635l7.9681,-0.05127z" fill="#8d8d5a"/><path d="M152.04144,33.65039c1.1134,0.59619 1.64958,7.46514 -2.14182,8.11685c-2.35278,-3.46055 -0.86288,-5.86831 2.14182,-8.11685z" fill="#8d8d5a"/><path d="M151.43054,35.39985c0.14796,0.14341 0.08057,0.04497 0.13771,0.33208c-0.82333,1.22446 -1.46353,2.56289 -1.89863,3.97266l-0.11866,-0.02886c-0.07178,-1.8252 0.72957,-3.00308 1.87959,-4.27588z" fill="#f8f5e4"/><path d="M151.37047,36.72524l0.1421,0.13652c0.1714,0.86851 -0.45854,2.14746 -0.79256,2.98037l-0.05274,-0.00615c-0.13185,-0.45249 0.52007,-2.50928 0.7032,-3.11074z" fill="#cfd1bf"/><path d="M188.07589,187.47803c-4.65868,0.02783 -9.3701,-0.00732 -14.02145,0.07324c-2.57546,0.04688 -5.15092,0.07471 -7.72491,0.08643c-0.84384,0.00586 -4.39352,0.22119 -4.83008,-0.45996c0.27102,-0.25488 0.4102,-0.35449 0.85409,-0.35889c2.92852,-0.03076 5.99915,0.04395 8.91888,0.06299l19.90194,0.18604c0.93613,0.01318 6.10463,0.23145 6.69209,0.04248c0.86435,-0.02051 5.71787,-0.07031 6.24234,0.15967c-0.77059,0.28564 -14.6221,0.34863 -16.03289,0.20801z" fill="#8d8d5a"/><path d="M197.86644,187.11035c0.86435,-0.02051 5.71787,-0.07031 6.24234,0.15967c-0.77059,0.28564 -14.6221,0.34863 -16.03289,0.20801c2.3645,-0.26367 8.36511,-0.19482 10.93471,-0.18896c-0.48345,0 -0.68269,-0.06738 -1.14416,-0.17871z" fill="#cfd1bf"/><path d="M138.20882,30.98657c2.34795,2.09019 3.12586,5.87842 0.34281,8.08564c-3.84766,-1.77861 -2.06271,-5.51089 -0.34281,-8.08564z" fill="#8d8d5a"/><path d="M138.06891,33.34087c1.16364,1.03931 0.97114,3.3394 0.59918,4.70449l-0.19616,0.00645l0.02432,0.2269c-0.13786,-0.54111 0.04234,-1.35894 0.12658,-1.94224c-0.08145,-0.56382 -0.08409,-0.90366 -0.34545,-1.39702c-0.39745,0.41514 -0.23997,1.52168 -0.65558,2.14189c-0.51143,-1.19341 0.05289,-2.59775 0.44712,-3.74048z" fill="#f8f5e4"/><path d="M177.91469,233.24854c-2.16526,-1.13525 -1.26429,-4.93213 -1.40053,-7.15576c-0.26809,-0.38672 -0.19924,-0.26367 -0.816,-0.40137l-0.10255,-0.17725c0.3516,-0.65039 2.14768,-2.57227 2.73661,-3.0791c0.07911,0.83789 0.1421,1.67725 0.18605,2.51807l-0.0835,0.79102c0.02637,1.44434 -0.03076,4.69189 0.1758,5.9165c0.94785,0.84814 1.40346,0.24463 1.8708,0.63428c-0.54937,1.09863 -1.51627,0.94336 -2.56667,0.95361z" fill="#273a29"/><path d="M178.61056,231.66064c0.94785,0.84814 1.40346,0.24463 1.8708,0.63428c-0.54937,1.09863 -1.51627,0.94336 -2.56667,0.95361l0.44536,-0.28564c0.12159,-0.4834 0.1758,-0.80859 0.25051,-1.30225z" fill="#3d4d3c"/><path d="M74.21585,72.80977c4.14798,-0.83291 4.45212,4.26138 2.06974,4.89727c-2.12102,0.4582 -1.7829,0.7582 -3.31206,-1.11226c0.17682,-1.20425 0.36947,-2.91401 1.24231,-3.78501z" fill="#f3eace"/><path d="M150.6995,47.12095c0.44829,-1.44492 0.91562,-2.70835 2.40112,-3.45864c0.65778,-0.33267 2.53151,-0.68979 3.28012,-0.49497c0.22268,0.05815 0.18898,0.15117 0.32083,0.42744c-0.04248,1.97666 -3.4193,5.3603 -5.69736,4.39453c-0.21828,-0.16348 -0.38676,-0.30249 -0.59479,-0.47666l-0.00146,-0.24097z" fill="#8d8d5a"/><path d="M150.6995,47.12095c0.53326,-0.13755 1.94844,-2.18965 4.90919,-2.95518c-1.09289,0.98833 -3.86612,3.02212 -4.60448,3.82354c-0.21828,-0.16348 -0.38676,-0.30249 -0.59479,-0.47666l-0.00146,-0.24097z" fill="#ffffff"/><path d="M109.47751,225.44678c1.1925,-0.38965 1.96866,-0.59766 3.19559,-0.86133l0.05435,1.72852l0.25066,0.33252c-0.35702,1.30664 -0.22693,3.25635 -0.19983,4.62305c0.02154,1.08984 0.0898,0.93896 0.86801,1.64502c-0.31732,0.23291 -2.78173,0.02344 -3.38003,-0.06592c0.08438,-0.24023 0.41108,-0.65186 0.42397,-0.82471c0.13917,-1.85449 0.07164,-3.92139 0.05889,-5.77734z" fill="#1d3220"/><path d="M134.9495,225.4834c0.91298,-0.34131 1.93804,-0.90381 2.79975,-0.65918c0.3642,0.44531 0.24553,0.62109 0.26443,1.30225l0.54175,0.17432c-0.79784,0.99023 -0.75169,5.10205 -0.2448,6.08643c0.44345,0.22852 0.55816,0.20801 0.80531,0.58594c-0.67697,0.06885 -3.37198,0.23291 -3.83418,-0.09229l0.56065,-0.44238c0.44082,-1.10156 0.26077,-4.76514 0.24187,-6.17578z" fill="#1d3220"/><path d="M137.68919,59.01064c0.57633,0.10635 0.6465,0.24844 1.09274,0.67852c0.24451,3.89766 -0.01729,7.6585 0.15075,11.29644c-0.471,0.5291 -0.43745,0.67236 -1.00176,0.83525c-0.3053,-0.24331 -0.31556,-0.22969 -0.52242,-0.55356c0.14782,-1.12515 0.00601,-3.9019 0.04893,-5.25264c0.07369,-2.32266 0.19924,-4.69189 0.23176,-7.004z" fill="#8d8d5a"/><path d="M209.62741,209.11963c1.19104,-0.34277 2.43628,0.34277 2.78202,1.53223c0.3472,1.19092 -0.33255,2.4375 -1.52213,2.7876c-1.19543,0.35303 -2.44947,-0.33105 -2.79814,-1.52783c-0.34867,-1.19531 0.33988,-2.44775 1.53824,-2.79199z" fill="#1d3220"/><path d="M119.91647,43.12236c3.7331,-0.30029 5.09569,1.10801 6.03196,4.4937c-0.68064,-0.87129 -3.74174,-3.84609 -4.84342,-3.33179l0.29959,0.36445c1.37065,1.14829 2.72855,2.31182 4.07312,3.49028c-2.63259,0.03267 -3.84678,-0.88477 -5.18974,-3.1043c-0.30032,-0.49629 -0.83007,-1.17539 -0.69411,-1.76382z" fill="#8d8d5a"/><path d="M145.27229,34.96289c1.2681,1.02993 1.34574,7.1978 -1.22283,7.11768c-0.17331,-0.60835 1.17317,-3.17417 0.78861,-4.83311l-0.23513,0.17871c-0.76736,1.30137 -1.29139,4.04722 -1.89717,4.52109l-0.20114,-0.21226c-0.63493,-2.86948 0.75813,-4.92642 2.76767,-6.77212z" fill="#8d8d5a"/><path d="M130.84283,34.9418c1.7848,1.36641 4.17259,4.75693 3.07575,7.01997l-0.22297,-0.04951c-0.64899,-0.89985 -1.1969,-2.97495 -1.94331,-4.35205l-0.25403,-0.16055l-0.14181,0.14326c-0.12775,1.14932 0.88398,3.76113 1.27733,4.96099c-3.04265,-2.08608 -2.85205,-4.35322 -1.79095,-7.56211z" fill="#8d8d5a"/><path d="M109.62665,191.81982c0.75564,-0.19922 1.56036,0.02197 2.10695,0.58008c0.54659,0.55957 0.75081,1.36816 0.53458,2.11963c-0.21609,0.75 -0.81937,1.32715 -1.57926,1.51025c-1.15661,0.27832 -2.32158,-0.42627 -2.61267,-1.58057c-0.29095,-1.15283 0.40024,-2.32471 1.5504,-2.62939z" fill="#1d3220"/><path d="M73.62531,90.34819c0.2133,0.01479 0.64841,-0.01274 0.76883,0.1437c1.05348,1.36787 1.23924,3.83833 -1.11427,3.67778c-1.13141,-0.59517 -1.39511,-0.93354 -2.10871,-1.9292c0.90097,-0.99565 1.27616,-1.30386 2.45416,-1.89229z" fill="#f3eace"/><path d="M73.09835,91.59609c0.62834,0.13228 0.68166,0.18984 0.88925,0.74341c-0.07926,0.52939 -0.14621,0.59941 -0.40551,1.05c-0.4455,-0.30952 -0.81454,-0.48135 -1.01978,-0.96724c0.08731,-0.53789 0.05318,-0.36401 0.53604,-0.82617z" fill="#f8f5e4"/><path d="M178.1945,78.68599l0.45561,-0.06943c0.89218,0.40869 1.39174,1.7354 1.16174,2.654c-0.14796,0.59692 -0.63434,0.81343 -1.11486,1.10698c-0.33402,0.03252 -0.49517,-0.00293 -0.82772,-0.0416c-1.59098,-1.00547 -1.21887,-2.7832 0.32523,-3.64995z" fill="#f3eace"/><path d="M81.41248,105.99419c1.87885,0.1333 2.70936,1.37637 0.9083,2.72534c-2.0967,0.29429 -2.2599,-1.54204 -0.9083,-2.72534z" fill="#f3eace"/><path d="M112.72745,226.31396c0.64313,-0.95654 1.66716,-2.10498 3.16483,-1.47363c0.31424,0.1333 0.3472,0.37646 0.40595,0.6709c-0.18913,0.479 -0.19865,0.4541 -0.59332,0.74707c-1.53956,-0.07324 -1.52096,-0.51416 -2.72679,0.38818z" fill="#1d3220"/><path d="M82.46259,64.89551c2.0696,-0.04746 2.21522,1.21567 0.73103,2.30874c-1.43013,-0.0438 -1.55831,-1.37271 -0.73103,-2.30874z" fill="#f3eace"/><path d="M138.01368,226.12646c0.83915,-0.9917 1.71404,-1.96436 3.11839,-1.29199c0.36742,0.45703 0.27615,0.20801 0.33578,0.75c-0.1758,0.41309 -0.1613,0.38525 -0.54263,0.62842c-1.07531,-0.104 -1.4209,-0.29883 -2.36977,0.08789z" fill="#1d3220"/><path d="M195.45359,79.49634c0.57428,-0.17329 0.78084,-0.28198 1.36244,-0.2332c0.95811,0.67485 0.49224,2.07261 -0.56695,2.32075c-0.47319,-0.17036 -0.28421,-0.03516 -0.60358,-0.39375c-0.22121,-0.77241 -0.28714,-0.86982 -0.19191,-1.6938z" fill="#f8f5e4"/><path d="M195.45359,79.49634c0.81893,0.20991 1.21741,0.50596 1.07238,1.39951c-0.38969,0.35435 -0.31204,0.34775 -0.88046,0.29429c-0.22121,-0.77241 -0.28714,-0.86982 -0.19191,-1.6938z" fill="#f3eace"/><path d="M143.13603,27.58037c0.77366,0.08438 1.22312,0.38438 1.29461,1.19355c-0.17873,0.52207 -0.18693,0.49468 -0.5983,0.82148c-0.63068,0.13901 -0.85116,0.28184 -1.33827,-0.17607c-0.14269,-0.69976 0.26326,-1.24922 0.64196,-1.83896z" fill="#f3eace"/><path d="M170.43883,225.34717c-1.31849,0.79395 -0.87753,1.31396 -1.8957,1.69043c-0.49224,-0.15381 -0.30032,-0.00879 -0.57721,-0.47314c0.0293,-1.24951 0.97422,-1.45459 1.97628,-1.8252z" fill="#273a29"/><path d="M172.99085,75.11235c0.66804,0.13491 0.96983,0.17388 1.24671,0.82471c-0.06885,0.50332 -0.30325,0.64409 -0.6739,1.00415c-0.22121,0.01992 -0.47026,0.00366 -0.69441,-0.0019c-0.71492,-0.60864 -0.3516,-1.17393 0.12159,-1.82695z" fill="#f3eace"/><path d="M100.69649,95.57139c0.69045,-0.01963 0.94097,-0.01934 1.37153,0.55854c-0.01318,0.62827 0.01963,0.40415 -0.36478,0.99287l-0.62804,0.14927c-0.55069,-0.19072 -0.3535,-0.02241 -0.64313,-0.48325c-0.01919,-0.5978 0.02857,-0.64761 0.26443,-1.21743z" fill="#f3eace"/><path d="M179.78695,61.41841l0.54791,0.14048c0.66364,0.73066 0.39555,1.22798 -0.19924,1.898c-0.58746,-0.24155 -0.69148,-0.32842 -0.92148,-0.82852c0.06885,-0.59443 0.20803,-0.70107 0.57281,-1.20996z" fill="#f3eace"/><path d="M147.59811,228.51416l0.08936,0.66504c-0.82772,0.11865 -2.00587,0.32373 -2.78114,0.03076l0.10621,-0.28564c0.87636,-0.6416 1.563,-0.17871 2.58557,-0.41016z" fill="#3d4d3c"/><path d="M178.51827,224.95313c0.71931,-0.08057 1.52066,-0.27979 2.08176,0.27393c-0.30911,0.76904 -1.45767,0.54785 -2.16526,0.51709z" fill="#3d4d3c"/><path d="M169.9422,224.73926c0.93906,-0.06592 1.39467,-0.09521 2.34106,-0.03369c-0.33255,0.53467 -0.36332,0.60352 -0.37064,1.23047c-0.56256,-0.4834 -0.73836,-0.63428 -1.47378,-0.58887z" fill="#3d4d3c"/><path d="M195.78029,143.58369c0.56842,0.04014 0.57867,0.14136 0.75447,0.62168c-0.14796,0.64292 0.00293,0.37529 -0.47026,0.83306c-0.65485,-0.10898 -0.42924,0.05112 -0.77791,-0.37603c0.02783,-0.54038 0.16847,-0.64717 0.4937,-1.07871z" fill="#f3eace"/></g></svg></svg>